<svg id="Layer_1" enable-background="new 0 0 480 480" height="512" viewBox="0 0 480 480" width="512" xmlns="http://www.w3.org/2000/svg"><path d="m376.1 94c0 29.1-30.8 47.9-56.8 34.8-26.7-13.7-28.6-51-3.6-67.4 25.7-16.8 60.4 1.4 60.4 32.6z" fill="#fe4f60"/><path d="m341.4 78.3c-8.8 4-16 11.2-20 20-5.4 11.9-23.4 8.5-23.3-4.6.2-22 18.1-38.5 38.7-38.7 13.1-.1 16.5 17.9 4.6 23.3z" fill="#ff6d7a"/><circle cx="436" cy="300" fill="#fe4f60" r="29"/><path d="m445.6 284.9c-12.5 3.4-21.7 15.3-21.6 28.3 0 6.1-7.9 8.6-11.5 3.7-4.2-5.8-6.3-13.2-5.2-21 2.5-18 21.4-29.5 38.7-23.1 5.8 2.2 5.5 10.5-.4 12.1z" fill="#ff6d7a"/><circle cx="307" cy="414" fill="#fe4f60" r="21"/><path d="m314 403.2c-9 1.4-16.4 8.7-17.8 17.8-.7 4.5-6.9 5.1-8.6.9-6.9-17.2 10.3-34.2 27.4-27.3 4.1 1.6 3.5 7.9-1 8.6z" fill="#ff6d7a"/><path d="m131.8 129.1c0-23.8 19.3-43.1 43.1-43.1 33.6 0 54.3 37.1 36.7 65.6-2.3 3.8-7.2 4.9-11 2.6s-4.9-7.2-2.6-11c11-17.9-1.9-41.2-23.1-41.2-14.9 0-27.1 12.1-27.1 27.1 0 4.4-3.6 8-8 8s-8-3.6-8-8zm51.1 35.1c0-4.4-3.6-8-8-8h-166.9c-4.4 0-8 3.6-8 8s3.6 8 8 8h166.9c4.4 0 8-3.6 8-8zm12 127.6h-126.9c-4.4 0-8 3.6-8 8s3.6 8 8 8h126.9c14.9 0 27.1 12.1 27.1 27.1s-12.1 27.1-27.1 27.1c-4.4 0-8 3.6-8 8s3.6 8 8 8c23.8 0 43.1-19.3 43.1-43.1s-19.3-43.1-43.1-43.1zm123-76.8h-118.9c-4.4 0-8 3.6-8 8s3.6 8 8 8h118.9c14.9 0 27.1 12.1 27.1 27.1s-12.1 27.1-27.1 27.1-27.1-12.1-27.1-27.1c0-4.4-3.6-8-8-8s-8 3.6-8 8c0 23.8 19.3 43.1 43.1 43.1s43.1-19.3 43.1-43.1-19.3-43.1-43.1-43.1zm-166.9 0c-4.4 0-8 3.6-8 8s3.6 8 8 8h9.3c4.4 0 8-3.6 8-8s-3.6-8-8-8zm230.5-105.9c-8.1 24-34 37.4-58.4 29.8l-3.9 7.7c-1.4 2.8-4.2 4.4-7.1 4.4-5.9 0-9.8-6.3-7.1-11.6l4-7.8c-23.4-17.6-25.3-51.9-3.8-72l-6.7-10.3c-2.4-3.7-1.4-8.7 2.3-11.1s8.7-1.4 11.1 2.3l6.7 10.2c12.2-5.3 26.2-5.2 38.4.5l7.6-11c2.5-3.6 7.5-4.5 11.1-2s4.5 7.5 2 11.1l-7.6 10.9c8.5 8.4 13.9 20 14 32.8l10.4 1.8c4.4.8 7.3 4.9 6.5 9.3-.8 4.3-4.9 7.3-9.3 6.5zm-13.5-15.1c0-17.1-13.9-31-31-31s-31 13.9-31 31 13.9 31 31 31 31-13.9 31-31zm-32 320c0 16-13 29-29 29s-29-13-29-29 13-29 29-29 29 13 29 29zm-16 0c0-7.2-5.8-13-13-13s-13 5.8-13 13 5.8 13 13 13 13-5.8 13-13zm156-99.9-4.8-2.8c1.1-3.6 1.8-7.4 1.8-11.3 0-4.4-3.6-8-8-8s-8 3.6-8 8c0 11.6-9.4 21-21 21s-21-9.4-21-21c0-15.4 16.3-26.1 30.9-18.5 3.1 1.6 6.9.9 9.3-1.5 1.1-1.1 1-1.2 6.8-12.2 2.1-3.9.6-8.7-3.3-10.8s-8.7-.6-10.8 3.3l-2.1 4.1c-25.3-6.9-49.4 13.9-46.5 39.8l-3.8 1.3c-4.2 1.4-6.4 6-5 10.2s6 6.4 10.2 5l3.8-1.3c12.9 21.1 42.1 23.8 58.7 5.8 5 2.9 6.1 3.9 8.8 3.9 2.8 0 5.4-1.4 6.9-4 2.2-3.9.9-8.8-2.9-11z"/></svg>