<svg id="Layer_1" enable-background="new 0 0 480 480" height="512" viewBox="0 0 480 480" width="512" xmlns="http://www.w3.org/2000/svg"><path d="m338.5 69.3c-13.7 0-25 11.1-25 25v-35c0-17-16.6-29.6-33-23.5-9.2 3.4-16 12.4-16 23v-26.7c0-14-11.8-24.9-25-24.1-13.2.2-24 11-24 24.5v26.3c0-13.7-11.3-24.8-25-24.5-13.4.3-24 11.6-24 25v133.2c0-6.8-2.7-12.9-7.2-17.3-15.4-15.4-41.8-4.4-41.8 17.9v106.3c0 13 6.2 25.6 17.2 33.4 10.8 7.7 17.3 20.1 17.3 33.4v81.8c0 13.3 10.7 24 24 24h141.5c13.3 0 24-10.7 24-24v-96.2c0-9.4 3.6-18.7 10.6-25.8 6.7-6.8 10.4-16.1 10.4-25.7v-207c0-13.3-10.7-24-24-24z" fill="#ffebd2"/><path d="m176 472c-13.3 0-24-10.7-24-24v-81.8c0-13.3-6.4-25.7-17.3-33.4-10.6-7.5-17.3-19.9-17.3-33.4v-106.3c0-20.4 27.7-18.3 27.3-.5v106.8c0 13 6.2 25.6 17.3 33.4 10.8 7.7 17.3 20.1 17.3 33.4v81.8c0 4.6 1.2 8.6 3.4 12 3.3 5.2-.5 12-6.7 12z" fill="#fff3e4"/><circle cx="275.5" cy="381" fill="#ff6d7a" r="18"/><circle cx="200" cy="301.5" fill="#ff6d7a" r="22.5"/><path d="m182.6 194.4c0-9-4.8-16.9-12.1-21.1-2.5-1.5-4-4.1-4-7 0-116.1-.6-109.8 1.5-115.5 3.4-9.5 17.8-5.4 15.4 4.4-1.1 4.2-.8-6-.8 139.2z" fill="#fff3e4"/><path d="m223.8 14.2c5.8-5.1 14.5 1.7 10.8 8.5-1.9 3.5-3 7.5-3 11.7v26.3c0-10.7-6.8-19.6-16.1-23 0-5.7-.9-15.4 8.3-23.5z" fill="#fff3e4"/><g fill="#ffdfba"><path d="m231.5 41.8v152.2c0 4.3-3.2 8-7.5 8.3-4.7.3-8.5-3.4-8.5-8 0-160.5 0-152.1 0-153.1.6-10.2 16-9.6 16 .6z"/><path d="m174 250.4c-4.3-.3-7.5-4-7.5-8.3v-70.6c0-2.2 1.8-4 4-4h4c4.4 0 8 3.6 8 8v66.9c0 4.6-3.9 8.3-8.5 8z"/><path d="m280.5 47.3v148.8c0 1.5-.6 2.9-1.8 3.8-6.7 5.5-14.2.8-14.2-5.6v-135.5c0-5.8 2-11.1 5.4-15.3 3.5-4.5 10.6-1.9 10.6 3.8z"/><path d="m329.5 82.6v102.6c0 4.3-3.2 8-7.5 8.3-4.7.3-8.5-3.4-8.5-8v-91.2c0-5.8 2-11.2 5.3-15.5 3.5-4.4 10.7-1.9 10.7 3.8z"/></g><path d="m200 271c-16.8 0-30.5 13.7-30.5 30.5s13.7 30.5 30.5 30.5 30.5-13.7 30.5-30.5-13.7-30.5-30.5-30.5zm0 45c-8 0-14.5-6.5-14.5-14.5s6.5-14.5 14.5-14.5 14.5 6.5 14.5 14.5-6.5 14.5-14.5 14.5zm109.5-34c-7.2 0-13 5.8-13 13s5.8 13 13 13 13-5.8 13-13-5.8-13-13-13zm-34 73c-14.3 0-26 11.7-26 26s11.7 26 26 26 26-11.7 26-26-11.7-26-26-26zm0 36c-5.5 0-10-4.5-10-10s4.5-10 10-10 10 4.5 10 10-4.5 10-10 10zm-68 24c-6.1 0-11 4.9-11 11s4.9 11 11 11 11-4.9 11-11-4.9-11-11-11zm51-179c0-6.1-4.9-11-11-11s-11 4.9-11 11 4.9 11 11 11 11-4.9 11-11zm22.5-201.7c0-4.4 3.6-8 8-8 17.9 0 32.5 14.6 32.5 32.5v126.8c0 4.4-3.6 8-8 8s-8-3.6-8-8v-126.8c0-9.1-7.4-16.5-16.5-16.5-4.4 0-8-3.6-8-8zm-114.5 216.1c-4.4 0-8-3.6-8-8 0-5 0-45 0-49.9 0-9.1-7.4-16.5-16.5-16.5s-16.5 7.4-16.5 16.5v106.8c0 10.7 5.2 20.7 13.9 26.9 12.9 9.2 20.6 24.1 20.6 39.9v105.9c0 4.4-3.6 8-8 8s-8-3.6-8-8v-105.8c0-10.7-5.2-20.7-13.9-26.9-12.9-9.2-20.6-24.1-20.6-39.9v-106.9c0-25.1 27.4-40.8 49-28v-105.7c0-25.1 27.5-40.8 49-28 .9-17.1 15.2-30.8 32.5-30.8 17.9 0 32.5 14.6 32.5 32.5v161.8c0 4.4-3.6 8-8 8s-8-3.6-8-8v-161.8c0-9.1-7.4-16.5-16.5-16.5s-16.5 7.4-16.5 16.5v161.8c0 4.4-3.6 8-8 8s-8-3.6-8-8v-135.5c0-9.1-7.4-16.5-16.5-16.5s-16.5 7.4-16.5 16.5v183.6c0 4.4-3.6 8-8 8zm183 142.6v79c0 4.4-3.6 8-8 8s-8-3.6-8-8v-79c0-4.4 3.6-8 8-8s8 3.6 8 8zm21-299.7v207.1c0 11.8-4.5 22.9-12.8 31.3-5.3 5.4-8.2 12.6-8.2 20.1 0 4.9-3.8 8.2-8 8.2s-8-3.3-8-8.2c0-11.8 4.5-22.9 12.8-31.3 5.3-5.4 8.2-12.6 8.2-20.1v-207.1c0-8.8-7.2-16-16-16-4.4 0-8-3.6-8-8s3.6-8 8-8c17.6 0 32 14.3 32 32z"/></svg>