<svg id="Layer_1" enable-background="new 0 0 479.951 479.951" height="512" viewBox="0 0 479.951 479.951" width="512" xmlns="http://www.w3.org/2000/svg"><path d="m459.136 209.033c-46.162-46.162-45.952-46.166-53.82-53.12-98.227-86.586-248.279-83.103-342.31 10.93l-42.19 42.19c-17.12 17.12-17.12 44.86 0 61.98l42.19 42.19c95.804 95.811 250.127 97.775 348.3 5.46 3.842-3.599 1.601-1.421 47.83-47.65 17.12-17.12 17.12-44.86 0-61.98z" fill="#ffa4b8"/><path d="m76.038 325.346c-12.566-11.055-26.384-25.495-55.215-54.326-17.116-17.116-17.117-44.877-.001-61.993 45.953-45.953 45.949-46.164 53.824-53.124 60.72-53.527 142.564-73.48 219.529-56.461 15.388 3.403 26.145 17.492 25.063 33.215-8.147 118.443-93.568 197.276-196.402 207.818-17.01 1.744-33.961-3.834-46.798-15.129z" fill="#ffb1bf"/><path d="m239.976 133.023c58.7 0 107 48.3 107 107s-48.3 107-107 107-107-48.3-107-107c0-59.09 47.91-107 107-107z" fill="#42434d"/><path d="m248.13 177.623c-32.967 10.821-59.794 37.781-70.536 70.783-7.885 24.226-44.618 19.795-44.618-8.383 0-59.571 48.655-107.653 108.184-106.993 25.807.285 31.491 36.545 6.97 44.593z" fill="#4d4e59"/><circle cx="239.976" cy="240.023" fill="#2c2c33" r="53"/><path d="m464.797 276.668-42.194 42.194c-3.589 3.589-9.615 2.988-12.394-1.349l-15.666-16.491h-19.566c-4.418 0-8-3.582-8-8s3.582-8 8-8h16.622l1.291-5.646-15.486-10.79c-3.625-2.526-4.517-7.512-1.991-11.137 2.526-3.626 7.513-4.516 11.137-1.991l10.185 7.096 1.443-6.315c.984-4.307 5.273-7.001 9.582-6.016 4.307.984 7 5.274 6.016 9.582-2.675 11.701-4.347 19.017-7.044 30.817l10.466 11.018 36.286-36.286c14-14 14.003-36.661 0-50.664-52.741-52.741-40.417-40.423-43.117-43.095l-14.391 8.888v14.538c0 4.418-3.582 8-8 8s-8-3.582-8-8v-12.754l-9.94-2.485c-4.286-1.072-6.892-5.415-5.821-9.702 1.072-4.286 5.414-6.89 9.702-5.821l12.727 3.182 11.546-7.131c-90.71-78.451-225.735-78.39-316.372-.047l13.059 7.942 10.409-3.718c4.161-1.487 8.739.683 10.225 4.843 1.486 4.161-.682 8.739-4.843 10.225l-8.041 2.872 1.301 11.711c.488 4.391-2.676 8.347-7.068 8.834-4.396.487-8.347-2.679-8.834-7.068l-1.565-14.091-16.849-10.243c-2.769 2.739 9.351-9.374-43.144 43.121-14 14-14.003 36.662 0 50.664l36.286 36.286 10.466-11.018c-2.697-11.801-4.369-19.116-7.044-30.817-.984-4.307 1.709-8.597 6.016-9.582 4.305-.987 8.597 1.708 9.582 6.016l1.443 6.315 10.185-7.096c3.624-2.525 8.611-1.635 11.137 1.991 2.526 3.625 1.635 8.611-1.991 11.137l-15.486 10.79 1.291 5.646h16.622c4.418 0 8 3.582 8 8s-3.582 8-8 8h-19.565l-11.244 11.836c80.018 75.051 203.246 86.996 296.039 27.736 3.723-2.378 8.67-1.288 11.048 2.436s1.288 8.67-2.437 11.048c-100.412 64.127-234.699 51.551-321.466-35.217l-42.194-42.194c-20.207-20.207-20.207-53.084 0-73.291l42.194-42.194c100.937-100.937 264.307-100.946 365.253 0l42.194 42.194c20.206 20.207 20.206 53.085 0 73.291zm-150.089 40.347c3.304 2.934 8.361 2.633 11.293-.671 18.685-21.046 28.975-48.151 28.975-76.321 0-63.411-51.589-115-115-115s-115 51.589-115 115c0 77.523 75.769 133.358 150.123 109.536 4.208-1.348 6.526-5.852 5.178-10.06s-5.852-6.525-10.06-5.178c-64.077 20.529-129.241-27.632-129.241-94.298 0-54.589 44.411-99 99-99s99 44.411 99 99c0 24.251-8.857 47.583-24.939 65.699-2.934 3.303-2.634 8.36.671 11.293zm-119.126-107.04c-3.986-1.906-8.762-.219-10.668 3.768-19.313 40.402 10.334 87.281 55.062 87.281 33.636 0 61-27.364 61-61s-27.364-61-61-61c-4.418 0-8 3.582-8 8s3.582 8 8 8c24.813 0 45 20.187 45 45s-20.187 45-45 45c-33.141 0-54.8-34.733-40.626-64.38 1.905-3.988.218-8.764-3.768-10.669z"/></svg>