<svg id="Layer_1" enable-background="new 0 0 479.951 479.951" height="512" viewBox="0 0 479.951 479.951" width="512" xmlns="http://www.w3.org/2000/svg"><path d="m459.136 187.982-42.19-42.19c-97.691-97.691-256.15-97.791-353.94 0l-42.19 42.19c-17.12 17.12-17.12 44.86 0 61.98 46.145 46.145 43.959 44.023 47.83 47.65 98.099 92.246 252.42 90.423 348.3-5.46l42.19-42.19c17.12-17.12 17.12-44.86 0-61.98z" fill="#d6f4fc"/><path d="m76.038 304.296c-12.566-11.056-26.384-25.496-55.215-54.327-17.116-17.116-17.117-44.877-.001-61.993 45.953-45.953 45.949-46.164 53.824-53.124 60.72-53.527 142.564-73.48 219.529-56.461 15.388 3.403 26.145 17.492 25.063 33.215-8.147 118.444-93.568 197.277-196.402 207.819-17.01 1.743-33.961-3.835-46.798-15.129z" fill="#e8f8fc"/><path d="m239.976 111.972c58.7 0 107 48.3 107 107s-48.3 107-107 107-107-48.3-107-107c0-59.09 47.91-107 107-107z" fill="#42434d"/><path d="m248.13 156.572c-32.967 10.821-59.794 37.781-70.536 70.783-7.885 24.226-44.618 19.795-44.618-8.383 0-59.571 48.655-107.653 108.184-106.993 25.807.286 31.491 36.545 6.97 44.593z" fill="#4d4e59"/><circle cx="239.976" cy="218.972" fill="#2c2c33" r="53"/><path d="m126.236 341.202c9.788 12.197 8.799 29.761-2.21 40.77-11.967 11.967-31.324 11.926-43.23 0-11.04-11.03-11.99-28.61-2.21-40.77 12.134-15.097 15.217-18.934 17.587-21.881 3.202-3.982 9.267-3.976 12.47.005 15.647 19.448 12.768 15.869 17.593 21.876z" fill="#bdeffc"/><path d="m110.855 322.067c2.778 3.453 2.779 8.361.007 11.818-2.62 3.267-6.814 8.501-13.606 16.957-3.416 4.246-5.522 9.153-6.347 14.212-1.709 10.483-16.724 11.011-18.608.558-1.47-8.156.321-16.995 6.285-24.41 12.13-15.1 15.22-18.93 17.59-21.88 3.2-3.98 9.26-3.98 12.47 0 .782.971 1.517 1.885 2.209 2.745z" fill="#d6f4fc"/><path d="m408.596 337.382c22.734 28.302 2.348 70.17-33.62 70.17-35.841 0-56.466-41.737-33.62-70.17l27.385-34.056c3.202-3.983 9.268-3.982 12.47.001 11.988 14.911 8.491 10.561 27.385 34.055z" fill="#d6f4fc"/><path d="m357.425 363.96c-4.459 15.287-27.242 11.107-25.385-4.708.887-7.549 3.864-15.088 9.316-21.869l27.39-34.06c3.2-3.98 9.26-3.98 12.46 0 1.515 1.886 2.783 3.464 3.88 4.829 3.81 4.74 3.804 11.486-.008 16.224-20.914 25.997-24.649 29.284-27.653 39.584z" fill="#e8f8fc"/><path d="m381.208 290.556c-3.198-3.978-9.267-3.983-12.47 0-36.561 45.479-35.816 44.096-38.808 49.637-50.983 20.35-107.866 22.792-160.535 6.808-4.227-1.283-8.695 1.104-9.979 5.332-1.283 4.228 1.104 8.695 5.332 9.979 51.967 15.771 107.874 14.771 159.318-2.89-2.953 30.117 20.725 56.103 50.906 56.103 42.613 0 66.881-49.532 39.854-83.151zm18.61 98.702c-13.699 13.699-35.99 13.699-49.689 0-10.604-10.603-13.112-26.382-7.113-39.455 2.405-5.261 1.827-3.987 31.958-41.467l27.384 34.063c11.259 14.007 10.168 34.152-2.54 46.859zm64.979-206.931-42.194-42.194c-100.937-100.937-264.307-100.946-365.253 0l-42.194 42.194c-20.207 20.207-20.207 53.084 0 73.291 45.567 45.567 51.177 52.059 69.163 65.683l-11.971 14.891c-12.36 15.375-11.162 37.489 2.788 51.438 15.038 15.038 39.506 15.039 54.544 0 13.95-13.949 15.148-36.063 2.787-51.438l-23.825-29.636c-3.198-3.978-9.267-3.984-12.47 0l-1.825 2.27c-17.217-12.989-22.326-18.969-67.879-64.521-13.968-13.968-13.968-36.696 0-50.664l42.194-42.194c94.463-94.462 248.163-94.462 342.626 0l42.194 42.194c13.968 13.968 13.968 36.696 0 50.664l-42.194 42.194c-3.125 3.124-3.125 8.189 0 11.313 3.124 3.124 8.189 3.124 11.313 0l42.194-42.194c20.208-20.207 20.208-53.085.002-73.291zm-344.801 163.89c7.233 8.997 6.532 21.937-1.631 30.099-8.8 8.801-23.118 8.799-31.917 0-8.163-8.163-8.864-21.103-1.631-30.1l17.59-21.88zm194.04-61.546c16.083-18.116 24.939-41.448 24.939-65.699 0-54.589-44.411-99-99-99s-99 44.411-99 99c0 68.135 67.741 116.226 132.186 93.303 4.16-1.479 8.738.693 10.219 4.856s-.694 8.738-4.856 10.218c-74.883 26.638-153.548-29.25-153.548-108.377 0-63.411 51.589-115 115-115s115 51.589 115 115c0 28.17-10.29 55.274-28.975 76.321-2.933 3.304-7.989 3.605-11.293.671-3.305-2.933-3.605-7.989-.672-11.293zm-114.687-85.079c-14.205 29.72 7.563 64.38 40.627 64.38 24.813 0 45-20.187 45-45s-20.187-45-45-45c-4.418 0-8-3.582-8-8s3.582-8 8-8c33.636 0 61 27.364 61 61s-27.364 61-61 61c-44.77 0-74.352-46.925-55.063-87.28 1.904-3.987 6.682-5.674 10.667-3.768 3.987 1.906 5.674 6.681 3.769 10.668z"/></svg>