<svg id="Layer_1" enable-background="new 0 0 480 480" height="512" viewBox="0 0 480 480" width="512" xmlns="http://www.w3.org/2000/svg"><path d="m273.33 8h-65.66c-72.17 0-130.67 58.5-130.67 130.67v317.33c0 8.84 7.16 16 16 16h295c8.84 0 16-7.16 16-16v-317.33c0-72.098-58.416-130.67-130.67-130.67z" fill="#ffebd2"/><path d="m210.422 357.415c21.368 13.363 4.504 46.153-18.885 36.767-48.103-19.305-81.706-66.179-81.706-120.734v-53.213c0-4.832 4.308-8.536 9.088-7.774 3.591.575 7.173.961 10.735 1.164 10.987.625 19.575 9.706 19.575 20.71v12.848c0 47.931 25.198 87.722 61.193 110.232z" fill="#fff3e4"/><path d="m404 138.67v317.33c0 8.837-7.163 16-16 16h-43.51c-30.11 0-54.55-24.46-54.55-54.74v-23.812l-.6.252c47.26-19.47 80.52-65.98 80.52-120.26v-66.483c0-3.419-2.152-6.486-5.385-7.599-23.617-8.128-43.857-24.511-56.63-46.965-2.966-5.215-10.364-5.503-13.657-.488-13.556 20.65-31.724 36.789-52.645 47.994-5.372 2.877-11.76-1.142-11.736-7.236.017-4.359-.486-8.742-1.524-13.049-1.517-6.292-9.503-8.311-13.771-3.445-24.654 28.112-59.504 41.958-95.969 38.234-4.675-.477-8.712 3.269-8.712 7.968 0 54.294-1.424 66.502 5.93 90.017 11.79 37.369 39.512 66.86 74.59 81.31l-.6-.249v23.809c0 30.28-24.44 54.74-54.55 54.74h-42.201c-8.837 0-16-7.163-16-16v-317.328c0-72.167 58.503-130.67 130.67-130.67.001 0 69.029.04 69.03.04 73.136 2.112 127.3 61.68 127.3 130.63z" fill="#42434d"/><path d="m289.94 393.448v20.772c-32.101 13.781-70.357 12.786-100.19 0v-20.769l.678.249c31.808 13.186 67.329 13.251 99.512-.252z" fill="#ffdfba"/><path d="m315.97 47.44c-2.6-.07-67.55-.04-68.9-.04-72.17 0-130.67 58.5-130.67 130.67v34.4c-3.616.603-6.57 3.757-6.57 7.76 0 55.604-1.523 68.329 5.93 92.16.952 3.016.64-10.676.64 159.61h-23.4c-8.837 0-16-7.163-16-16v-317.33c0-72.167 58.503-130.67 130.67-130.67 70.595 0 66.828-.018 68.92.04 15.09 0 35.372 4.763 46.56 9.8 15.26 6.86 9.88 30.01-7.18 29.6z" fill="#4d4e59"/><path d="m242.5 319c15.06.21 30.18 26.36 22 40-8 13.35-37.3 13-45 0-8.01-13.52 7.67-40.21 23-40z" fill="#ffb1bf"/><path d="m246.514 331.148c-7.646 5.47-13.646 15.996-14.607 25.204-.65 6.224-9.101 8.223-12.406 2.647-8.081-13.641 7.951-40.674 23.392-39.988 6.309.281 8.758 8.462 3.621 12.137z" fill="#ffa4b8"/><path d="m101.331 273.441v-30.369c0-4.418 3.582-8 8-8s8 3.582 8 8v30.369c0 38.463 18.471 75.125 49.408 98.069 3.549 2.632 4.292 7.643 1.66 11.191-2.631 3.548-7.642 4.293-11.191 1.66-35.088-26.021-55.877-67.001-55.877-110.92zm171.5-273.441h-65.662c-76.462 0-138.669 62.207-138.669 138.668v333.332c0 4.418 3.582 8 8 8s8-3.582 8-8v-333.332c0-67.639 55.029-122.668 122.669-122.668h65.662c67.64 0 122.669 55.029 122.669 122.668v333.332c0 4.418 3.582 8 8 8s8-3.582 8-8v-333.332c0-76.461-62.207-138.668-138.669-138.668zm99.544 193.642c-2.937-1.197-45.519-11.021-63.873-57.268-2.517-6.344-11.366-6.819-14.53-.745-12.397 23.796-31.664 43.841-56.662 57.209.062-10.683-2.587-21.427-8.064-31.169-2.895-5.148-10.22-5.501-13.576-.597-17.853 26.093-43.85 43.398-75.326 44.106-4.418.1-7.918 3.761-7.818 8.178.099 4.356 3.66 7.82 7.994 7.82 7.884 0 19.737-1.571 31.367-5.659-2.382 3.512-1.617 8.308 1.815 10.882l23.467 17.6-23.469 17.601c-6.144 4.607-2.843 14.4 4.806 14.4 1.671 0 3.355-.521 4.794-1.601l32-24c4.268-3.2 4.259-9.606 0-12.8-34.772-26.079-32.744-24.909-35.129-25.417 17.625-8.019 30.845-20.07 39.865-30.575 1.713 7.207 1.763 14.961-.252 22.67-1.666 6.379 4.702 11.942 10.802 9.414 29.766-12.331 53.411-32.441 69.783-57.388 14.024 24.648 36.042 42.011 60.986 50.61v66.527c0 38.464-18.471 75.126-49.41 98.071-6.199 4.597-2.886 14.426 4.771 14.426 1.656 0 3.327-.512 4.76-1.575 35.083-26.018 55.879-67.28 55.879-110.123 0-.541.002-72.722-.004-73.263-.025-3.206-1.978-6.113-4.976-7.334zm-28.496 270.358c-6.331 0-12.465-1.25-18.231-3.715-4.062-1.737-8.764.149-10.501 4.211-1.736 4.063.149 8.764 4.212 10.5 7.766 3.32 16.016 5.003 24.521 5.003 4.418 0 8-3.582 8-8s-3.583-7.999-8.001-7.999zm-190.96-3.71c-5.763 2.462-11.893 3.71-18.22 3.71-4.418 0-8 3.582-8 8s3.582 8 8 8c8.5 0 16.745-1.681 24.505-4.996 4.063-1.736 5.95-6.437 4.214-10.5s-6.439-5.95-10.499-4.214zm118.442-97.176c-11.294 18.835-48.081 17.969-58.745-.038-11.212-18.933 8.461-52.412 29.993-52.075 21.124.289 40.21 33.002 28.752 52.113zm-28.97-36.115c-9.036 0-20.82 19.798-16.007 27.925 4.566 7.71 26.351 8.143 31.255-.038 4.963-8.279-6.384-27.765-15.248-27.887zm70.509-111.799c-2.653-3.536-7.67-4.25-11.2-1.6l-32 24c-4.268 3.2-4.259 9.606 0 12.8l32 24c3.536 2.652 8.549 1.933 11.2-1.6 2.65-3.535 1.935-8.549-1.601-11.2l-23.466-17.6 23.467-17.6c3.535-2.651 4.251-7.665 1.6-11.2zm-108.247 177.681c-3.381-2.846-8.428-2.414-11.272.966l-32 38c-2.846 3.379-2.413 8.426.966 11.272 3.382 2.847 8.429 2.412 11.272-.966l32-38c2.846-3.38 2.413-8.426-.966-11.272zm118.966 38.966-32-38c-2.846-3.38-7.892-3.813-11.272-.966-3.379 2.846-3.812 7.893-.966 11.272l32 38c1.582 1.879 3.845 2.847 6.123 2.847 6.728 0 10.517-7.925 6.115-13.153zm-81.119-22.847c-4.418 0-8 3.582-8 8v27c0 4.418 3.582 8 8 8s8-3.582 8-8v-27c0-4.418-3.582-8-8-8z"/></svg>