<svg id="Layer_1" enable-background="new 0 0 480 480" height="512" viewBox="0 0 480 480" width="512" xmlns="http://www.w3.org/2000/svg"><path d="m237.5 88v253.26c0 19.75-12.09 37.48-30.48 44.69l-10.36 4.07c-6.13 2.4-10.16 8.31-10.16 14.89v38.09c0 16.217-13.29 29.326-29.6 28.99-15.88-.32-28.4-13.69-28.4-29.57v-37.51c0-6.58-4.03-12.49-10.16-14.89l-10.36-4.07c-18.39-7.21-30.48-24.94-30.48-44.69v-253.26c0-64.549 72.358-101.685 124.75-66.32-.002.003-.004.006-.006.009 21.263 14.364 35.256 38.691 35.256 66.311z" fill="#d6f4fc"/><g><path d="m195.017 48.055c-40.347 1.499-77.517 33.684-77.517 79.945 0 148.495-.105 211.149-.016 238.394.041 12.441-14.69 19.035-23.943 10.719-10.132-9.106-16.041-22.047-16.041-35.853v-253.26c0-64.55 72.36-101.69 124.75-66.32 0 0 0 .01-.01.01 12.037 8.126 6.328 25.861-7.223 26.365z" fill="#d6f4fc"/><path d="m195.017 48.055c-40.347 1.499-77.517 33.684-77.517 79.945 0 148.495-.105 211.149-.016 238.394.041 12.441-14.69 19.035-23.943 10.719-10.132-9.106-16.041-22.047-16.041-35.853v-253.26c0-64.55 72.36-101.69 124.75-66.32 0 0 0 .01-.01.01 12.037 8.126 6.328 25.861-7.223 26.365z" fill="#e8f8fc"/></g><path d="m370.5 8h-142c-17.638 0-32 14.276-32 32v116c0 17.67 14.33 32 32 32h142c17.679 0 32-14.319 32-32v-116c0-17.67-14.33-32-32-32z" fill="#fe4f60"/><path d="m372.012 8.035c25.735 1.197 24.37 39.965-1.393 39.965-3.863 0-13.523 0-25.995 0-59.712 0-108.124 48.407-108.124 108.119 0 26.061-40 27.393-40-.119v-116c0-17.711 14.35-32 32-32 151.319 0 142.385-.017 143.512.035z" fill="#ff6d7a"/><path d="m154.39 471.82c-14.67-1.58-25.89-14.37-25.89-29.4 0-40.698.199-38.828-.527-41.584-.807-3.06 2.109-5.766 5.054-4.609 6.857 2.694 10.473 8.763 10.473 15.013v37.51c0 9.23 4.23 17.61 10.89 23.07z" fill="#e8f8fc"/><path d="m186.5 426.33v16.67c0 8.01-3.24 15.26-8.49 20.51-18.089 18.089-49.51 5.422-49.51-20.51v-16.67z" fill="#42434d"/><path d="m133.318 459.019c-5.908-8.907-4.818-15.578-4.818-32.689h15c0 24.746-.166 24.509.565 28.214 1.268 6.432-7.123 9.938-10.747 4.475z" fill="#4d4e59"/><path d="m245.5 227v114.265c0 23.2-13.956 43.664-35.555 52.134l-20.524 8.049c-4.112 1.612-8.755-.412-10.369-4.527-1.613-4.113.414-8.755 4.527-10.369l20.524-8.049c15.428-6.05 25.396-20.667 25.396-37.239v-114.264c0-4.418 3.582-8 8-8s8.001 3.582 8.001 8zm-59 191.333h-23c-4.418 0-8 3.582-8 8s3.582 8 8 8h15v8.667c0 11.58-9.42 21-21 21s-21-9.42-21-21v-49c0-3.291-2.016-6.246-5.079-7.448l-20.524-8.049c-15.428-6.05-25.396-20.667-25.396-37.239v-27.264c0-4.418-3.582-8-8-8s-8 3.582-8 8v27.265c0 23.2 13.956 43.664 35.555 52.134l15.445 6.057v43.544c0 20.402 16.598 37 37 37s37-16.598 37-37v-16.667c-.001-4.418-3.583-8-8.001-8zm-29-310.333c-4.418 0-8 3.582-8 8v219c0 4.418 3.582 8 8 8s8-3.582 8-8v-219c0-4.418-3.582-8-8-8zm-80 170.5h28c4.418 0 8-3.582 8-8s-3.582-8-8-8h-20v-84h20c4.418 0 8-3.582 8-8s-3.582-8-8-8h-20v-74.5c0-39.701 32.299-72 72-72 4.418 0 8-3.582 8-8s-3.582-8-8-8c-48.523 0-88 39.477-88 88v182.5c0 4.418 3.582 8 8 8zm207-124.5c4.418 0 8-3.582 8-8v-88c0-4.418-3.582-8-8-8s-8 3.582-8 8v40h-32v-40c0-4.418-3.582-8-8-8s-8 3.582-8 8v48c0 4.418 3.582 8 8 8h40v32c0 4.418 3.582 8 8 8zm80-24c4.418 0 8-3.582 8-8v-40c0-17.645-14.355-32-32-32s-32 14.355-32 32v40c0 17.645 14.355 32 32 32 4.418 0 8-3.582 8-8s-3.582-8-8-8c-8.822 0-16-7.178-16-16v-40c0-8.822 7.178-16 16-16s16 7.178 16 16v40c0 4.418 3.582 8 8 8zm6-130h-142c-22.056 0-40 17.944-40 40v116c0 22.056 17.944 40 40 40h142c4.418 0 8-3.582 8-8s-3.582-8-8-8h-142c-13.233 0-24-10.767-24-24v-116c0-13.233 10.767-24 24-24h142c13.233 0 24 10.767 24 24v116c0 4.418 3.582 8 8 8s8-3.582 8-8v-116c0-22.056-17.944-40-40-40z"/></svg>