<svg id="Layer_1" enable-background="new 0 0 480 480" height="512" viewBox="0 0 480 480" width="512" xmlns="http://www.w3.org/2000/svg"><path d="m240 8c-45.84 0-83 37.16-83 83v148.34c0 23.03 11.02 44.68 29.65 58.22l5.58 4.06c12.42 9.04 19.77 23.47 19.77 38.82v103.56c0 15.46 12.54 28 28 28s28-12.54 28-28v-103.56c0-15.35 7.35-29.78 19.77-38.82l5.58-4.06c18.63-13.54 29.65-35.19 29.65-58.22v-148.34c0-45.84-37.16-83-83-83z" fill="#d6f4fc"/><path d="m279 104v102c0 34.848-42.237 51.922-66.58 27.58-7.06-7.06-11.42-16.81-11.42-27.58v-102c0-21.54 17.46-39 39-39s39 17.46 39 39z" fill="#42434d"/><path d="m240.515 8.668c19.661.119 24.044 27.847 5.263 33.665-32.714 10.135-58.778 40.038-58.778 79.334 0 160.354-.083 149.85.192 153.603.698 9.53-11.607 13.964-17.096 6.141-8.613-12.276-13.096-26.717-13.096-41.404v-147.261c0-45.591 36.547-84.363 83.515-84.078z" fill="#e8f8fc"/><path d="m279 104v19.02c-4.805 27.068-20.845 51.122-45.798 65.52-14.313 8.259-32.202-1.923-32.202-18.448v-65.322c0-21.845 17.877-40.158 39.719-39.763 21.193.383 38.281 17.673 38.281 38.993z" fill="#4d4e59"/><path d="m232.12 470.87c-11.63-3.4-20.12-14.15-20.12-26.87v-103.56c0-8.645 10.852-10.475 13.96-3.367 2.322 5.312 3.83 11.601 3.83 19.037v103.56c0 3.98.83 7.77 2.33 11.2z" fill="#e8f8fc"/><path d="m268 427.5v16.5c0 15.46-12.54 28-28 28s-28-12.54-28-28v-16.5z" fill="#42434d"/><path d="m229.725 452.138c.01 8.524-11.686 11.21-15.22 3.453-3.148-6.912-2.505-10.784-2.505-28.091h17.79c0 11.227-.071 19.011-.065 24.638z" fill="#4d4e59"/><path d="m331 91v148.336c0 25.508-12.316 49.695-32.946 64.699l-5.581 4.059c-10.315 7.501-16.473 19.594-16.473 32.349v54.307c0 4.418-3.582 8-8 8s-8-3.582-8-8v-54.307c0-17.857 8.621-34.787 23.063-45.29l5.581-4.059c16.503-12.002 26.356-31.351 26.356-51.758v-148.336c0-41.355-33.645-75-75-75s-75 33.645-75 75v148.336c0 20.407 9.853 39.756 26.357 51.759l5.581 4.059c14.44 10.502 23.062 27.432 23.062 45.289v103.557c0 11.028 8.972 20 20 20s20-8.972 20-20v-8.5h-12c-4.418 0-8-3.582-8-8s3.582-8 8-8h20c4.418 0 8 3.582 8 8v16.5c0 19.851-16.149 36-36 36s-36-16.149-36-36v-103.557c0-12.754-6.158-24.848-16.473-32.35l-5.581-4.059c-20.63-15.003-32.946-39.189-32.946-64.698v-148.336c0-50.178 40.822-91 91-91s91 40.822 91 91zm-91-18c4.418 0 8-3.582 8-8s-3.582-8-8-8c-25.916 0-47 21.084-47 47v102c0 25.916 21.084 47 47 47s47-21.084 47-47v-102c0-4.418-3.582-8-8-8s-8 3.582-8 8v102c0 17.093-13.906 31-31 31-17.093 0-31-13.907-31-31v-102c0-17.093 13.907-31 31-31z"/></svg>