<svg id="Layer_1" enable-background="new 0 0 480 480" height="512" viewBox="0 0 480 480" width="512" xmlns="http://www.w3.org/2000/svg"><path d="m291.492 472h-186c-8.837 0-16-7.163-16-16v-16c0-13.255 10.745-24 24-24 161.257 0 125.671-.011 178 .039z" fill="#d6f4fc"/><path d="m291.492 416.04v19.98c-32.266-.031-158.772-.02-158-.02-13.255 0-24 10.745-24 24 0 8.801-11.168 12.79-16.599 5.864-2.131-2.718-3.401-6.142-3.401-9.864v-16c0-13.255 10.745-24 24-24 161.257 0 125.671-.011 178 .04z" fill="#e8f8fc"/><circle cx="291.492" cy="430" fill="#42434d" r="42"/><path d="m230.492 78h-3v-46c0-13.25-10.75-24-24-24h-26c-13.25 0-24 10.75-24 24v46h-3c-13.25 0-24 10.75-24 24v154c0 13.25 10.75 24 24 24h80c13.25 0 24-10.75 24-24v-154c0-13.25-10.75-24-24-24z" fill="#d6f4fc"/><path d="m296.002 178.45c-3.1 20.14-20.5 35.55-41.51 35.55-23.2 0-42-18.8-42-42s18.8-42 42-42c25.573 0 45.429 22.731 41.51 48.45z" fill="#42434d"/><path d="m230.492 78h-57v-26c0-13.255 10.752-24 24.007-24 2.364 0 4.522-.001 6.495-.002 12.813-.007 13.57-19.294.775-19.965-1-.053.411-.033-27.276-.033-13.255 0-24 10.745-24 24v46h-3c-13.255 0-24 10.745-24 24v154c0 13.255 10.745 24 24 24h16v-138c0-13.255 10.745-24 24-24h39.937c26.069 0 27.319-40 .062-40z" fill="#e8f8fc"/><path d="m254.492 222v34c0 13.25-10.75 24-24 24h-80c-13.25 0-24-10.75-24-24v-34z" fill="#42434d"/><g fill="#4d4e59"><path d="m166.492 222v33.937c0 26.07-40 27.321-40 .063v-34z"/><path d="m265.277 150.923c-15.56 3.642-28.226 16.269-31.876 31.832-2.387 10.179-16.657 10.459-19.419.376-8.621-31.464 20.455-60.22 51.682-51.63 10.085 2.774 9.799 17.038-.387 19.422z"/><path d="m302.277 408.922c-15.56 3.642-28.226 16.269-31.876 31.832-2.387 10.179-16.657 10.459-19.419.376-8.621-31.464 20.455-60.22 51.682-51.63 10.085 2.775 9.799 17.039-.387 19.422z"/></g><path d="m304.468 172.921c.464-25.39-18.015-46.402-41.977-50.273v-20.648c0-17.645-14.355-32-32-32h-69v-38c0-8.823 7.178-16 16-16h26c8.822 0 16 7.177 16 16v13c0 4.418 3.582 8 8 8s8-3.582 8-8v-13c0-17.645-14.355-32-32-32h-26c-17.645 0-32 14.355-32 32v38.393c-15.278 2.408-27 15.663-27 31.607v154c0 17.645 14.355 32 32 32h80c17.645 0 32-14.355 32-32 0-4.418-3.582-8-8-8s-8 3.582-8 8c0 8.823-7.178 16-16 16h-80c-8.822 0-16-7.177-16-16v-26h46c4.418 0 8-3.582 8-8s-3.582-8-8-8h-46v-112c0-8.823 7.178-16 16-16h80c8.822 0 16 7.177 16 16v20.648c-23.78 3.841-42 24.505-42 49.352 0 27.57 22.43 50 50 50 21.627 0 40.086-13.805 47.042-33.063 82.249 32.374 106.492 135.345 50.987 201.375-2.843 3.382-2.406 8.428.976 11.271 3.383 2.843 8.429 2.406 11.272-.976 64.404-76.616 32.399-193.473-60.3-227.686zm-49.976 33.079c-18.748 0-34-15.252-34-34s15.252-34 34-34 34 15.252 34 34-15.253 34-34 34zm37 174c-43.641 0-66.158 52.207-36.615 84h-157.385v-24c0-8.823 7.178-16 16-16h107.666c4.418 0 8-3.582 8-8s-3.582-8-8-8h-107.666c-17.645 0-32 14.355-32 32v32c0 4.418 3.582 8 8 8h202c27.57 0 50-22.43 50-50s-22.43-50-50-50zm0 84c-18.748 0-34-15.252-34-34s15.252-34 34-34 34 15.252 34 34-15.253 34-34 34z"/></svg>