<svg id="Layer_1" enable-background="new 0 0 479.222 479.222" height="512" viewBox="0 0 479.222 479.222" width="512" xmlns="http://www.w3.org/2000/svg"><path d="m362.812 402.24c-105.832-220.622-61.212-127.618-109.01-227.24v-116c14.781 0 25.42-11.734 25.42-25.12 0-15.585-11.926-25.88-25.11-25.88-34.48 0-84.14 0-118.62 0-13.88 0-25.11 11.25-25.11 25.12 0 15.02 11.241 25.88 25.42 25.88v116c-96.896 201.965-85.463 178.177-108.26 225.67-17 35.587 8.811 70.33 42.52 70.33h249.48c35.42 0 58.53-36.96 43.27-68.76z" fill="#d6f4fc"/><path d="m355.405 454.928c-19.85 22.428-57.603 8.455-57.603-22.278v-165.93c10.79 22.49 29.37 61.22 65.01 135.52 8.93 18.609 4.72 38.985-7.407 52.688z" fill="#bdeffc"/><path d="m185.802 59v95.983c0 13.176-2.956 26.178-8.655 38.058-36.346 75.758-99.915 208.277-100.355 209.199-8.224 17.137-5.573 33.944 4.276 46.78 6.892 8.981.315 21.98-11.006 21.98-33.71 0-59.519-34.743-42.52-70.33 2.269-4.727 102.296-213.239 108.26-225.67v-116z" fill="#e8f8fc"/><path d="m451.222 138c-4.352 4.328-9.453 6-15.42 6v268.11c0 79.214-118 78.34-118 .54v-268.65c-20.093 0-27.859-22.494-15.42-35 3.72-3.7 8.84-6 14.5-6h119.84c18.235 0 27.336 22.094 14.5 35z" fill="#d6f4fc"/><path d="m437.06 123.002c-34.21-.005-99.993-.002-100.178-.002-8.616 0-15.536 5.26-18.683 11.946-2.994 6.361-11.511 7.674-16.308 2.534-12.21-13.083-2.877-34.48 15.47-34.48h119.361c14.32 0 13.211 20.003.338 20.002z" fill="#e8f8fc"/><path d="m359.088 448.79c6.426 8.548-3.576 19.913-12.927 14.725-17.318-9.607-28.359-27.154-28.359-50.865v-268.65h30v268.65c0 14.468 4.169 26.672 11.286 36.14z" fill="#e8f8fc"/><path d="m317.802 144h118v20.5h-118z" fill="#bdeffc"/><path d="m135.802 59h118v20.5h-118z" fill="#bdeffc"/><path d="m254.656 27.974c-16.889-.006-46.535.026-99.164.026-10.898 0-20.118 6.899-23.638 16.621-2.9 8.009-13.792 9.287-18.032 1.9-9.95-17.334 2.517-38.521 22.076-38.521h118.213c14.599 0 13.379 19.979.545 19.974z" fill="#e8f8fc"/><path d="m449.225 123.5c0-6.893-5.607-12.5-12.5-12.5h-119.847c-6.892 0-12.5 5.607-12.5 12.5 0 6.19 4.598 12.5 13.423 12.5 4.418 0 8 3.582 8 8v67h20c4.418 0 8 3.582 8 8s-3.582 8-8 8h-20v64h20c4.418 0 8 3.582 8 8s-3.582 8-8 8h-20v64h20c4.418 0 8 3.582 8 8s-3.582 8-8 8h-20v25.655c0 67.11 102 68.321 102-.544v-227.111c0-4.418 3.582-8 8-8s8 3.582 8 8v227.11c0 90.042-134 88.74-134 .544v-261.544c-12.303-3.155-21.423-14.337-21.423-27.61 0-15.715 12.785-28.5 28.5-28.5h119.847c15.715 0 28.5 12.785 28.5 28.5s-12.785 28.5-28.5 28.5h-81.923c-4.418 0-8-3.582-8-8s3.582-8 8-8h81.923c6.892 0 12.5-5.607 12.5-12.5zm-168.423 339.5h-210.736c-29.471 0-48.789-30.777-36.065-57.301l2.412-5.027h34.389c4.418 0 8-3.582 8-8s-3.582-8-8-8h-26.713l30.703-64h34.01c4.418 0 8-3.582 8-8s-3.582-8-8-8h-26.335l30.703-64h33.632c4.418 0 8-3.582 8-8s-3.582-8-8-8h-25.956l22.169-46.211c1.139-2.376.787 5.91.787-119.46 0-4.418-3.582-8-8-8-10.231 0-17.423-8.054-17.423-17.118 0-10.956 8.184-17.882 17.11-17.882h118.626c9.435 0 17.11 7.679 17.11 17.118 0 11.093-8.32 17.882-17.118 17.882h-81.305c-4.418 0-8 3.582-8 8s3.582 8 8 8h81.305c17.34 0 33.118-13.656 33.118-33.882 0-18.263-14.853-33.119-33.11-33.119h-118.626c-17.267 0-33.11 13.584-33.11 33.882 0 15.612 10.862 28.727 25.423 32.206v107.092l-108.226 225.598c-17.846 37.201 9.304 80.222 50.49 80.222h210.735c4.418 0 8-3.582 8-8s-3.581-8-7.999-8zm-27-376c-4.418 0-8 3.582-8 8 0 86.78-.337 81.116.787 83.46l24.083 50.2c1.375 2.868 4.237 4.542 7.219 4.542 5.841 0 9.764-6.132 7.207-11.462l-23.295-48.56v-78.18c-.001-4.418-3.583-8-8.001-8z"/></svg>