<svg id="Layer_1" enable-background="new 0 0 480.068 480.068" height="512" viewBox="0 0 480.068 480.068" width="512" xmlns="http://www.w3.org/2000/svg"><path d="m347.4 178.264-24 24 4.11 4.11c6.25 6.25 6.25 16.38 0 22.62-92.784 92.784-161.92 161.927-174.91 174.92l-18.64-18.64-74.55 74.55-37.27-37.27 74.55-74.55-18.64-18.64 174.91-174.91c6.25-6.25 16.38-6.25 22.63 0l4.11 4.11 24-24c7.265-7.285 19.169-7.381 26.55 0l17.15 17.15c7.33 7.33 7.33 19.22 0 26.55z" fill="#d6f4fc"/><path d="m347.4 151.714c7.33 7.33 7.33 19.22 0 26.55l-24 24-43.7-43.7c13.52-13.52 10.428-10.428 24-24 7.262-7.282 19.166-7.384 26.55 0z" fill="#42434d"/><path d="m312.694 221.558-5.472-5.472c-18.196-18.196-47.699-18.196-65.895 0l-138.277 138.278-25-25 174.91-174.91c6.249-6.249 16.381-6.249 22.63 0 .622.622 52.119 52.094 52.706 52.749 9.059 10.103-6.007 23.95-15.602 14.355z" fill="#e8f8fc"/><path d="m14.2 382.172h105.43v21.213h-105.43z" fill="#e8f8fc" transform="matrix(.707 -.707 .707 .707 -258.138 162.359)"/><path d="m465.14 155.184c16.112 19.859 2.148 50.15-23.93 50.15-25.802 0-40.21-30.042-23.93-50.15l17.71-21.892c3.202-3.958 9.237-3.958 12.439 0z" fill="#bdeffc"/><path d="m337.742 162.056-2.492-2.492c-7.38-7.38-19.29-7.28-26.55 0l-14 14-15-15 24-24c7.26-7.28 19.17-7.38 26.55 0l17.15 17.15c7.456 7.455-3.278 16.722-9.658 10.342z" fill="#4d4e59"/><path d="m433.325 171.497c-6.156 13.138-26.204 4.601-20.58-8.773 2.193-5.216 2.994-5.636 22.245-29.43 3.2-3.96 9.24-3.96 12.44 0l2.129 2.633c3.322 4.107 3.323 9.974 0 14.079-13.413 16.572-14.231 17.215-16.234 21.491z" fill="#d6f4fc"/><path d="m333.169 200.714c9.38 9.379 9.381 24.561 0 33.941-8.574 8.574-161.207 161.207-169.257 169.256l9.767 9.767c5.056 5.055 1.405 13.657-5.657 13.657-2.047 0-4.095-.781-5.657-2.343l-65.678-65.678-63.235 63.235 25.961 25.961 42.032-42.032c3.124-3.124 8.189-3.124 11.313 0 3.125 3.124 3.125 8.189 0 11.313l-42.032 42.032 4.626 4.626c3.125 3.124 3.125 8.189 0 11.313-3.125 3.125-8.189 3.124-11.313 0l-61.696-61.695c-3.125-3.124-3.125-8.189 0-11.313 3.124-3.124 8.189-3.124 11.313 0l8.482 8.482 63.235-63.235-28.404-28.404c-3.125-3.124-3.125-8.189 0-11.313 3.124-3.124 8.189-3.124 11.313 0l84.315 84.315 49.66-49.66-12.581-12.581c-3.125-3.124-3.125-8.189 0-11.313 3.124-3.124 8.189-3.124 11.313 0l12.581 12.582 54.787-54.787-22.581-22.582c-3.125-3.124-3.125-8.189 0-11.313 3.124-3.124 8.189-3.124 11.313 0l22.581 22.582 42.183-42.183c3.126-3.127 3.127-8.187 0-11.313l-51.921-51.922c-3.119-3.119-8.195-3.118-11.314 0l-144.771 144.771c-3.124 3.124-8.189 3.124-11.313 0-3.125-3.124-3.125-8.189 0-11.313l144.773-144.774c9.357-9.356 24.583-9.357 33.941 0zm16.97-57.578 127.518-127.518c3.125-3.124 3.125-8.189 0-11.313-3.124-3.124-8.189-3.124-11.313 0l-127.518 127.518-2.92-2.92c-10.438-10.438-27.422-10.438-37.862 0-3.124 3.125-3.125 8.189 0 11.314s8.19 3.125 11.314 0c4.201-4.2 11.035-4.201 15.235 0l17.153 17.152c4.2 4.2 4.2 11.035 0 15.235-5.056 5.055-1.405 13.657 5.657 13.657 2.047 0 4.095-.781 5.657-2.343 10.439-10.438 10.439-27.423 0-37.862zm121.224 7.013c-2.78-3.435-7.818-3.967-11.251-1.186-3.435 2.779-3.965 7.817-1.186 11.251 7.356 9.09 6.668 22.181-1.601 30.45-8.886 8.884-23.342 8.885-32.228 0-8.269-8.269-8.957-21.36-1.6-30.45l23.933-29.575c2.779-3.435 2.249-8.472-1.186-11.251-3.436-2.779-8.473-2.248-11.251 1.186l-23.933 29.575c-20.649 25.516-2.199 63.171 30.152 63.171 32.404 0 50.755-37.712 30.151-63.171z"/></svg>