<svg id="Layer_1" enable-background="new 0 0 480 480" height="512" viewBox="0 0 480 480" width="512" xmlns="http://www.w3.org/2000/svg"><path d="m354 32v34c0 13.251-10.759 24-24 24h-18v53h18c13.25 0 24 10.75 24 24v281c0 13.25-10.75 24-24 24h-180c-13.25 0-24-10.75-24-24v-281c0-13.25 10.75-24 24-24h18v-53h-18c-13.25 0-24-10.75-24-24v-34c0-13.25 10.75-24 24-24h180c13.25 0 24 10.75 24 24z" fill="#bdeffc"/><path d="m354 66c0 13.252-10.76 24-24 24-4.746 0-175.074 0-180 0-13.25 0-24-10.75-24-24v-34c0-13.25 10.75-24 24-24h180c13.25 0 24 10.75 24 24z" fill="#42434d"/><path d="m329.937 48h-149.917c-13.153 0-24.25 10.578-24.022 23.729.232 13.394-16.695 19.529-24.897 9.066-3.196-4.077-5.101-9.214-5.101-14.795v-34c0-13.255 10.745-24 24-24h180c27.258 0 26.007 40-.063 40z" fill="#4d4e59"/><path d="m339.379 144.902c22.331 9.49 14.934 43.098-9.33 43.098h-130.049c-13.176 0-24 10.693-24 24v233.221c0 12.397-8.391 23.476-20.493 26.166-15.652 3.479-29.507-8.336-29.507-23.387v-281c0-13.255 10.745-24 24-24 195.765 0 183.033-.795 189.379 1.902z" fill="#d6f4fc"/><path d="m285 224v166c0 17.67-14.33 32-32 32h-127v-230h127c17.67 0 32 14.33 32 32z" fill="#d6f4fc"/><path d="m186.75 192c-6.48 4.29-10.75 11.65-10.75 20v210h-50v-230z" fill="#e8f8fc"/><path d="m346 56v-24c0-8.822-7.178-16-16-16h-180c-8.822 0-16 7.178-16 16v34c0 8.822 7.178 16 16 16h180c4.418 0 8 3.582 8 8s-3.582 8-8 8h-10v37h10c17.645 0 32 14.355 32 32v281c0 17.645-14.355 32-32 32h-180c-17.645 0-32-14.355-32-32v-213.5c0-4.418 3.582-8 8-8s8 3.582 8 8v213.5c0 8.822 7.178 16 16 16h180c8.822 0 16-7.178 16-16v-281c0-8.822-7.178-16-16-16h-180c-8.822 0-16 7.178-16 16v17h119c22.056 0 40 17.944 40 40v166c0 22.056-17.944 40-40 40h-92c-4.418 0-8-3.582-8-8s3.582-8 8-8h92c13.233 0 24-10.766 24-24v-166c0-13.234-10.767-24-24-24h-127c-4.418 0-8-3.582-8-8v-25c0-17.645 14.355-32 32-32h10v-12c0-4.418 3.582-8 8-8s8 3.582 8 8v12h128v-37h-154c-17.645 0-32-14.355-32-32v-34c0-17.645 14.355-32 32-32h180c17.645 0 32 14.355 32 32v24c0 4.418-3.582 8-8 8s-8-3.582-8-8z"/></svg>