<svg id="Layer_1" enable-background="new 0 0 482 482" height="512" viewBox="0 0 482 482" width="512" xmlns="http://www.w3.org/2000/svg"><path d="m469.15 230.53c-10.66 36.85-40.25 65.51-77.15 73.47-48.6 10.48-99.88-17.11-119-66v202c0 17.67-14.33 32-32 32-17.679 0-32-14.319-32-32v-202c-19.12 48.89-70.4 76.48-119 66-36.9-7.96-66.49-36.62-77.15-73.47-2.98-10.26 4.66-20.53 15.35-20.53h180.8c-17.67 0-32-14.33-32-32s14.33-32 32-32 32 14.33 32 32c0-17.67 14.33-32 32-32s32 14.33 32 32-14.33 32-32 32h180.8c10.69 0 18.33 10.27 15.35 20.53z" fill="#42434d"/><path d="m273 210h180.802c10.689 0 18.324 10.267 15.352 20.534-10.666 36.846-40.25 65.503-77.154 73.466-48.6 10.48-99.88-17.11-119-66z" fill="#d6f4fc"/><path d="m209 210v28c-19.12 48.89-70.4 76.48-119 66-36.904-7.963-66.488-36.62-77.154-73.466-2.972-10.267 4.663-20.534 15.352-20.534z" fill="#d6f4fc"/><g fill="#4d4e59"><path d="m241.432 471.997c-17.837.236-32.432-14.872-32.432-32.71v-229.287c7.57 0 14.52-2.62 20-7.02v218.23c0 12.957 7.531 23.656 17.993 28.772 10.69 5.228 7.442 21.843-5.561 22.015z"/><path d="m219.728 167.341c-10.145 3.117-18.286 11.225-21.405 21.381-2.821 9.185-15.939 9.489-19.304.49-9.545-25.521 15.491-50.835 41.223-41.182 9.006 3.379 8.682 16.485-.514 19.311z"/><path d="m283.728 167.341c-10.145 3.117-18.286 11.225-21.405 21.381-2.821 9.185-15.939 9.489-19.305.49-9.601-25.672 15.653-50.774 41.223-41.182 9.007 3.379 8.683 16.485-.513 19.311z"/></g><path d="m98.026 231.5c-21.699 0-35.427 23.294-25.06 42.254 5.988 10.951-6.714 22.7-17.104 15.785-20.199-13.444-35.834-34.194-43.013-59.009-2.979-10.26 4.661-20.53 15.351-20.53h180.8c0 11.874-9.626 21.5-21.5 21.5z" fill="#e8f8fc"/><path d="m273 287.5h-64c0-6.21 0-75.937 0-77.5 17.67 0 32-14.33 32-32 0 17.67 14.33 32 32 32z" fill="#4d4e59"/><path d="m229 202.98v84.52h-20v-77.5c7.57 0 14.52-2.62 20-7.02z" fill="#646573"/><path d="m324.917 262.595c1.432 3.222 3.006 6.343 4.712 9.359 6.192 10.942-6.805 22.885-17.174 15.775-17.218-11.807-31.281-28.822-39.455-49.729v-28c1.245 0 181.02-.016 181.776.029 12.74.754 11.877 19.971-.885 19.971h-107.564c-17.123 0-28.019 17.72-21.41 32.595z" fill="#e8f8fc"/><path d="m190.513 301.778c2.814 3.406 2.335 8.448-1.071 11.263l-44.442 36.726v94.233c0 2.026-.769 3.977-2.151 5.458l-28 30c-1.575 1.688-3.71 2.542-5.851 2.542-6.952 0-10.624-8.34-5.847-13.458l25.849-27.695v-94.847c0-2.386 1.064-4.647 2.904-6.167l47.346-39.125c3.406-2.815 8.449-2.334 11.263 1.07zm-87.513-257.465v91.687c0 2.122.843 4.157 2.343 5.657l35.673 35.673c1.563 1.562 3.609 2.343 5.657 2.343 7.063 0 10.712-8.602 5.657-13.657l-33.33-33.33v-91.686c0-2.122-.843-4.157-2.343-5.657l-30-30c-3.125-3.124-8.189-3.124-11.314 0-3.124 3.124-3.124 8.189 0 11.313zm237.984 133.017 35.673-35.673c1.5-1.5 2.343-3.535 2.343-5.657v-91.687l27.657-27.657c3.124-3.124 3.124-8.189 0-11.313-3.125-3.124-8.189-3.124-11.314 0l-30 30c-1.5 1.5-2.343 3.535-2.343 5.657v91.686l-33.33 33.33c-3.124 3.124-3.124 8.189 0 11.313 3.126 3.125 8.189 3.125 11.314.001zm139.985 33.381c-6.597 73.913-80.492 124.419-151.779 95.116-4.086-1.68-6.037-6.354-4.357-10.441s6.354-6.038 10.441-4.358c57.874 23.792 118.016-14.049 128.59-73.028h-182.864v64.733l69.096 57.1c1.84 1.52 2.904 3.781 2.904 6.167v94.847l25.849 27.695c3.015 3.23 2.84 8.292-.39 11.307-3.228 3.013-8.29 2.842-11.308-.39l-28-30c-1.382-1.482-2.151-3.433-2.151-5.459v-94.233l-56-46.278v136.511c0 22.056-17.944 40-40 40s-40-17.944-40-40v-108c0-4.418 3.582-8 8-8s8 3.582 8 8v108c0 13.233 10.767 24 24 24s24-10.767 24-24c0-10.02 0-216.551 0-222.805-9.753-1.988-18.227-7.536-24-15.223-5.773 7.687-14.247 13.235-24 15.223v62.305h20c4.418 0 8 3.582 8 8s-3.582 8-8 8h-28c-4.418 0-8-3.582-8-8v-18.982c-22.046 29.24-55.862 45.685-90.242 45.686-57.505 0-104.571-45.732-109.727-103.493-.416-4.668 3.263-8.711 7.969-8.711h140c4.418 0 8 3.582 8 8s-3.582 8-8 8h-130.864c6.919 38.59 36.129 70.108 73.551 78.18 44.741 9.65 91.464-16.007 109.313-59.776v-19.209c-18.235-3.717-32-19.878-32-39.195 0-32.965 37.812-51.683 64-31.978v-138.022c0-4.418 3.582-8 8-8s8 3.582 8 8v138.022c26.246-19.748 64-.929 64 31.978 0 8.998-2.988 17.31-8.022 24h168.022c4.708 0 8.385 4.043 7.969 8.711zm-247.969-32.711c0-13.233-10.767-24-24-24s-24 10.767-24 24 10.767 24 24 24 24-10.767 24-24zm40 24c13.233 0 24-10.767 24-24s-10.767-24-24-24-24 10.767-24 24 10.767 24 24 24z"/></svg>