<svg id="Layer_1" enable-background="new 0 0 480 480" height="512" viewBox="0 0 480 480" width="512" xmlns="http://www.w3.org/2000/svg"><path d="m373 154v286c0 17.67-14.33 32-32 32h-202c-17.67 0-32-14.33-32-32v-286c0-39.76 32.24-72 72-72h9v-58c0-8.84 7.16-16 16-16h72c8.84 0 16 7.16 16 16v58h9c39.76 0 72 32.24 72 72z" fill="#d6f4fc"/><path d="m292 24v58h-104v-58c0-8.84 7.16-16 16-16h72c8.84 0 16 7.16 16 16z" fill="#42434d"/><path d="m275.938 31h-47.938c-8.837 0-16 7.163-16 16v35h-24v-58c0-8.837 7.163-16 16-16h72c15.725 0 14.864 23-.062 23z" fill="#4d4e59"/><path d="m304.042 121.778c-91.75.266-157.042 72.701-157.042 155.158v163.183c0 26.061-40 27.393-40-.119v-286c0-39.765 32.236-72 72-72 131.502 0 123.261-.062 126.508.139 25.381 1.568 23.963 39.565-1.466 39.639z" fill="#e8f8fc"/><path d="m323 196v162c0 17.67-14.33 32-32 32h-102c-17.67 0-32-14.33-32-32v-162c0-17.67 14.33-32 32-32h102c17.679 0 32 14.319 32 32z" fill="#f9f9f9"/><path d="m296.646 214c-49.51 0-89.646 40.136-89.646 89.646v54.461c0 31.537-47.051 34.202-49.871 2.791-.201-2.249-.129-165.911-.129-164.898 0-17.673 14.327-32 32-32h102c8.84 0 16.84 3.58 22.63 9.37 15.462 15.463 3.721 40.63-16.984 40.63z" fill="#fff"/><path d="m381 154v286c0 22.056-17.944 40-40 40h-202c-22.056 0-40-17.944-40-40v-286c0-42.72 34.107-80 81-80v-50c0-13.233 10.767-24 24-24h72c13.233 0 24 10.767 24 24v24c0 4.418-3.582 8-8 8s-8-3.582-8-8v-24c0-4.411-3.589-8-8-8h-72c-4.411 0-8 3.589-8 8v58c0 4.418-3.582 8-8 8h-9c-35.29 0-64 28.71-64 64v286c0 13.233 10.766 24 24 24h202c13.233 0 24-10.767 24-24v-286c0-35.29-28.71-64-64-64h-68.333c-4.418 0-8-3.582-8-8s3.582-8 8-8h68.333c44.112 0 80 35.888 80 80zm-192 18h102c4.418 0 8-3.582 8-8s-3.582-8-8-8h-102c-22.056 0-40 17.944-40 40v162c0 22.056 17.944 40 40 40h102c22.056 0 40-17.944 40-40v-162c0-4.418-3.582-8-8-8s-8 3.582-8 8v162c0 13.233-10.767 24-24 24h-102c-13.234 0-24-10.767-24-24v-162c0-13.233 10.766-24 24-24z"/></svg>