<svg id="Layer_1" enable-background="new 0 0 480 480" height="512" viewBox="0 0 480 480" width="512" xmlns="http://www.w3.org/2000/svg"><path d="m240 120c-4.418 0-8-3.582-8-8v-38c0-4.418 3.582-8 8-8s8 3.582 8 8v38c0 4.418-3.582 8-8 8z" fill="#bdeffc"/><path d="m299 8v42c0 13.25-10.75 24-24 24-10.156 0-59.853 0-70 0-13.25 0-24-10.75-24-24v-18c0-13.25 10.75-24 24-24z" fill="#d6f4fc"/><path d="m299 8c-33.466 0-84.162 0-94 0-13.255 0-24 10.745-24 24 0 19.145-.354 20.82 1.21 25.544 5.14 15.537 28.79 12.46 28.79-5.544 0-13.252 10.745-24 23.997-24h64.003c0-7.062 0-16.082 0-20z" fill="#e8f8fc"/><path d="m373 184v256c0 17.67-14.33 32-32 32h-202c-17.67 0-32-14.33-32-32 0-9.255 0-243.278 0-256 0-39.76 32.24-72 72-72h122c39.76 0 72 32.24 72 72z" fill="#d6f4fc"/><path d="m303.401 161.921c-86.016.133-146.401 67.531-146.401 143.963v134.223c0 32.544-50 34.259-50-.107v-256c0-39.764 32.236-72 72-72 131.828 0 123.146-.051 126.103.115 32.023 1.8 30.372 49.756-1.702 49.806z" fill="#e8f8fc"/><path d="m240 212c49.37 0 90 40.63 90 90s-40.63 90-90 90-90-40.63-90-90 40.63-90 90-90z" fill="#fff"/><path d="m264.54 292.59c15.514 19.956 1.432 49.51-24.22 49.51-25.432 0-39.873-29.37-24.22-49.51l17.906-23.015c3.203-4.117 9.425-4.117 12.628 0z" fill="#bdeffc"/><path d="m107 199c4.418 0 8-3.582 8-8v-7c0-35.29 28.71-64 64-64h61c4.418 0 8-3.582 8-8v-30h27c17.645 0 32-14.355 32-32v-34h22c4.963 0 9 4.037 9 9 0 4.418 3.582 8 8 8s8-3.582 8-8c0-13.785-11.215-25-25-25-2.955 0-109.271 0-124 0-17.645 0-32 14.355-32 32v18c0 17.645 14.355 32 32 32h27v22h-53c-44.112 0-80 35.888-80 80v7c0 4.418 3.582 8 8 8zm82-149v-18c0-8.822 7.178-16 16-16h86v34c0 8.822-7.178 16-16 16h-70c-8.822 0-16-7.178-16-16zm192 134v256c0 22.056-17.944 40-40 40h-202c-22.056 0-40-17.944-40-40v-210.667c0-4.418 3.582-8 8-8s8 3.582 8 8v210.667c0 13.233 10.767 24 24 24h202c13.233 0 24-10.767 24-24v-256c0-35.29-28.71-64-64-64h-24c-4.418 0-8-3.582-8-8s3.582-8 8-8h24c44.112 0 80 35.888 80 80zm-146.994 72.545-24.218 31.136c-11.95 15.365-10.582 37.332 3.183 51.097 15.078 15.078 39.618 15.081 54.7 0 13.765-13.765 15.132-35.731 3.181-51.097l-24.217-31.136c-3.204-4.12-9.433-4.111-12.629 0zm22.35 70.918c-8.842 8.844-23.23 8.844-32.072 0-8.07-8.07-8.873-20.95-1.866-29.96l17.902-23.017 17.902 23.017c7.007 9.01 6.206 21.89-1.866 29.96zm-16.356-107.463c-45.215 0-82 36.785-82 82s36.785 82 82 82c30.011 0 57.604-16.377 72.01-42.74 2.12-3.877 6.982-5.3 10.856-3.185 3.878 2.119 5.303 6.979 3.185 10.856-17.214 31.501-50.187 51.069-86.051 51.069-54.037 0-98-43.963-98-98s43.963-98 98-98 98 43.963 98 98c0 4.418-3.582 8-8 8s-8-3.582-8-8c0-45.215-36.785-82-82-82z"/></svg>