<svg id="Layer_1" enable-background="new 0 0 480 480" height="512" viewBox="0 0 480 480" width="512" xmlns="http://www.w3.org/2000/svg"><path d="m363 208v232c0 17.67-14.33 32-32 32h-202c-17.67 0-32-14.33-32-32v-232c0-38.355 30.449-72 73-72v-42c0-8.84 7.16-16 16-16h13v-54c0-8.84 7.16-16 16-16h30c8.84 0 16 7.16 16 16v54h13c8.84 0 16 7.16 16 16v42c42.544 0 73 33.642 73 72z" fill="#d6f4fc"/><path d="m290 94v42c-5.112 0-115.981 0-120 0v-42c0-8.84 7.16-16 16-16h88c8.84 0 16 7.16 16 16z" fill="#42434d"/><circle cx="230" cy="304" fill="#fff" r="77"/><path d="m245.084 28h-10.084c-8.837 0-16 7.163-16 16v34h-20v-54c0-8.837 7.163-16 16-16h30c13.924 0 13.007 20 .084 20z" fill="#e8f8fc"/><path d="m274.084 98h-58.084c-8.837 0-16 7.163-16 16v22h-30v-42c0-8.837 7.163-16 16-16h88c13.924 0 13.007 20 .084 20z" fill="#4d4e59"/><path d="m293.401 185.921c-18.266.028-42.347.079-74.397.079-39.765 0-72.004 32.238-72.004 72.003v182.103c0 32.544-50 34.259-50-.107v-231.999c0-39.764 32.236-72 72-72 131.828 0 123.146-.051 126.103.115 32.023 1.8 30.372 49.756-1.702 49.806z" fill="#e8f8fc"/><path d="m291 128h-68.333c-4.418 0-8 3.582-8 8s3.582 8 8 8h68.333c35.29 0 64 28.71 64 64v232c0 13.233-10.767 24-24 24h-202c-13.233 0-24-10.767-24-24v-232c0-35.29 28.71-64 64-64h9c4.418 0 8-3.582 8-8s-3.582-8-8-8v-34c0-4.411 3.589-8 8-8h88c4.411 0 8 3.589 8 8v11c0 4.418 3.582 8 8 8s8-3.582 8-8v-11c0-13.233-10.767-24-24-24h-5v-46c0-13.233-10.767-24-24-24h-30c-13.233 0-24 10.767-24 24v46h-5c-13.233 0-24 10.767-24 24v34.325c-40.844 3.56-73 37.923-73 79.675v232c0 22.056 17.944 40 40 40h202c22.056 0 40-17.944 40-40v-232c0-44.112-35.888-80-80-80zm-84-104c0-4.411 3.589-8 8-8h30c4.411 0 8 3.589 8 8v46h-46zm184-6c0 4.418-3.582 8-8 8h-2.333c-4.418 0-8-3.582-8-8s3.582-8 8-8h2.333c4.418 0 8 3.582 8 8zm-77 0c0-4.418 3.582-8 8-8h32c4.418 0 8 3.582 8 8s-3.582 8-8 8h-32c-4.418 0-8-3.582-8-8zm69.59 55.53c-1.118 3.352-4.239 5.472-7.589 5.472-1.85 0 2.017 1.104-56.531-18.412-4.191-1.397-6.456-5.928-5.06-10.12 1.398-4.19 5.926-6.453 10.12-5.06l54 18c4.192 1.398 6.456 5.928 5.06 10.12zm-153.59 161.47c-38.047 0-69 30.953-69 69s30.953 69 69 69c23.707 0 45.479-11.954 58.236-31.976 2.374-3.727 7.32-4.821 11.046-2.448 3.727 2.375 4.822 7.32 2.448 11.046-15.712 24.657-42.527 39.378-71.73 39.378-46.869 0-85-38.131-85-85s38.131-85 85-85 85 38.131 85 85c0 4.418-3.582 8-8 8s-8-3.582-8-8c0-38.047-30.953-69-69-69zm-8 94v-17h-17c-4.418 0-8-3.582-8-8s3.582-8 8-8h17v-17c0-4.418 3.582-8 8-8s8 3.582 8 8v17h17c4.418 0 8 3.582 8 8s-3.582 8-8 8h-17v17c0 4.418-3.582 8-8 8s-8-3.582-8-8z"/></svg>