<svg id="Layer_1" enable-background="new 0 0 480 480" height="512" viewBox="0 0 480 480" width="512" xmlns="http://www.w3.org/2000/svg"><path d="m472 275.002v84.61c0 18.42-10.51 35.28-27.12 43.23-39.033 18.661-83.756 19.079-123.62.05-16.68-7.96-27.26-24.82-27.26-43.29v-198.78c0-32.868 32.26-55.959 63.33-45.48 68.53 23.1 114.67 87.34 114.67 159.66z" fill="#ffa4b8"/><path d="m186 160.822v198.78c0 18.47-10.58 35.33-27.26 43.29-38.799 18.521-83.518 19.123-123.62-.05-16.61-7.95-27.12-24.81-27.12-43.23v-84.61c0-72.32 46.14-136.56 114.67-159.66 31.068-10.478 63.33 12.61 63.33 45.48z" fill="#ffa4b8"/><path d="m162.796 119.722c9.561 5.776 7.691 20.027-2.91 23.548-67.625 22.465-114.886 86.496-114.886 159.732 0 26.262-.153 45.053-.202 58.834-.084 23.577-35.334 24.803-36.699 1.266-.142-2.45-.099 3.177-.099-88.1 0-72.32 46.14-136.56 114.67-159.66 14.167-4.778 28.613-2.576 40.126 4.38z" fill="#ffb1bf"/><path d="m402.632 138.74c7.835 5.7 1.384 17.902-7.787 14.777-31.98-10.898-63.845 12.759-63.845 45.305 0 84.574-.065 133.889-.058 162.983.006 23.611-35.295 25.059-36.824 1.497-.175-2.705-.118 10.044-.118-202.48 0-32.868 32.26-55.959 63.33-45.48 16.511 5.566 31.723 13.519 45.302 23.398z" fill="#ffb1bf"/><path d="m480 274.999v84.615c0 21.437-12.431 41.236-31.67 50.442-40.574 19.419-87.826 20.425-130.517.057-19.326-9.221-31.813-29.049-31.813-50.513v-90.047l-46-33.648c-53.161 38.886-49.978 37.008-52.635 37.463-3.411.595-6.917-1.081-8.531-4.334-1.226-2.467-.834 4.554-.834-108.207 0-27.394-26.825-46.657-52.777-37.905-65.329 22.019-109.223 83.136-109.223 152.077v39.993h18v-9c0-4.418 3.582-8 8-8s8 3.582 8 8v14.177l7.959 6.823h9.041c4.418 0 8 3.582 8 8s-3.582 8-8 8h-6.905l-4.845 10.383c-1.358 2.91-4.243 4.619-7.255 4.619-5.822 0-9.722-6.074-7.244-11.385l4.431-9.496-7.141-6.121h-22.041v28.622c0 15.313 8.862 29.446 22.576 36.009 36.95 17.685 79.096 18.003 116.721.049 13.791-6.58 22.703-20.739 22.703-36.072v-56.607c0-4.418 3.582-8 8-8s8 3.582 8 8v56.607c0 21.465-12.487 41.292-31.813 50.514-40.496 19.321-87.77 20.402-130.518-.058-19.238-9.205-31.669-29.005-31.669-50.442v-84.615c0-75.815 48.27-143.023 120.112-167.24 36.35-12.25 73.888 14.725 73.888 53.067v88.902l38-27.796v-121.607c0-4.418 3.582-8 8-8s8 3.582 8 8v121.607c54.758 40.054 51.207 37.353 52.066 38.353 2.7 3.138 1.934-1.366 1.934 99.314 0 15.333 8.912 29.492 22.703 36.072 37.762 18.019 79.893 17.577 116.721-.048 13.715-6.563 22.577-20.697 22.577-36.01v-28.622h-22.041l-7.141 6.121 4.431 9.496c1.868 4.004.137 8.764-3.866 10.632-4.005 1.869-8.764.138-10.633-3.866l-4.845-10.383h-6.906c-4.418 0-8-3.582-8-8s3.582-8 8-8h9.041l7.959-6.823v-14.177c0-4.418 3.582-8 8-8s8 3.582 8 8v9h18v-39.993c0-68.941-43.893-130.057-109.223-152.077-25.955-8.752-52.777 10.513-52.777 37.905v60.166c0 4.418-3.582 8-8 8s-8-3.582-8-8v-60.166c0-38.355 37.555-65.315 73.888-53.066 71.842 24.217 120.112 91.425 120.112 167.239zm-240-195.007c4.418 0 8-3.582 8-8v-9c0-4.418-3.582-8-8-8s-8 3.582-8 8v9c0 4.418 3.582 8 8 8zm153 115c-4.418 0-8 3.582-8 8v17.014l-11.257 3.311c-4.239 1.246-6.664 5.693-5.417 9.933s5.694 6.663 9.932 5.417l13.415-3.945 17.891 11.927c3.678 2.452 8.644 1.456 11.094-2.219 2.451-3.676 1.458-8.644-2.219-11.094l-17.439-11.625v-18.719c0-4.418-3.582-8-8-8zm-306 0c-4.418 0-8 3.582-8 8v18.719l-17.438 11.625c-3.676 2.45-4.67 7.418-2.219 11.094 2.451 3.677 7.417 4.67 11.094 2.219l17.891-11.927 13.415 3.945c4.236 1.245 8.686-1.18 9.932-5.417 1.247-4.239-1.179-8.687-5.417-9.933l-11.258-3.311v-17.014c0-4.418-3.582-8-8-8z"/></svg>