<svg id="Layer_1" enable-background="new 0 0 479.065 479.065" height="512" viewBox="0 0 479.065 479.065" width="512" xmlns="http://www.w3.org/2000/svg"><path d="m458.483 199.733c-23.74 25.7-61.12 58.25-111.95 79.14v29.92c0 59.101-47.918 107-107 107-59.09 0-107-47.91-107-107v-29.92c-50.83-20.89-88.21-53.44-111.95-79.14-19.704-21.327-15.747-54.838 6.45-70.91 44.07-33.34 94.17-54.94 146.08-64.84 13.306-2.568 27.338 1.873 36.93 12.1 15.98 17.04 43 17.041 58.98 0 9.44-10.07 23.37-14.69 36.93-12.1 51.91 9.9 102.01 31.5 146.08 64.84 22.24 16.103 26.135 49.602 6.45 70.91z" fill="#ffa4b8"/><path d="m313.703 178.783c-48.737-12-99.747-11.965-148.34 0-18.64 4.57-31.88 20.91-32.78 39.91-.073 1.676-.05-5.47-.05 90.1 0 59.09 47.91 107 107 107 59.1 0 107-47.917 107-107v-88.02c0-19.814-13.473-37.175-32.83-41.99z" fill="#ff6d7a"/><g fill="#e84857"><path d="m400.133 154.183c11.43 4.32 13.93 19.36 4.58 27.22h-.01c-13.32 11.19-32.93 25.37-58.22 37.29-.91-19.01-14.17-35.28-32.78-39.91-47.388-11.656-98.28-12.313-148.34 0-18.64 4.57-31.88 20.91-32.78 39.91-25.29-11.92-44.9-26.1-58.22-37.29-9.39-7.88-6.82-22.91 4.64-27.25 105.035-39.708 219.159-38.574 321.13.03z"/><circle cx="286.533" cy="250.793" r="23"/><circle cx="192.533" cy="308.793" r="22"/><circle cx="262.033" cy="348.292" r="14.5"/></g><path d="m64.407 219.69c2.781 2.96 3.102 7.614.447 10.687-2.802 3.243-7.638 3.63-10.882.953-13.141-10.844-24.273-21.725-33.388-31.597-19.7-21.33-15.75-54.84 6.45-70.91 45.176-34.178 98.072-56.353 146.805-64.975 16.692-2.953 22.6 21.33 6.393 26.295-34.722 10.638-75.656 29.79-111.199 56.679-20.571 14.895-28.204 47.772-4.626 72.868z" fill="#ffb1bf"/><path d="m314.441 65.711c8.566 1.853 10.048 13.375 2.253 17.381-11.862 6.096-23.527 15.752-47.35 13.825-8.405-.68-11.693-11.356-5.037-16.533 1.659-1.29 3.236-2.725 4.716-4.301 9.44-10.07 23.37-14.69 36.93-12.1 2.835.541 5.664 1.117 8.488 1.728z" fill="#ffb1bf"/><path d="m257.733 125.165c8.34.337 9.149 12.377.94 13.886-49.247 9.057-95.676 28.002-137.631 55.041-2.581 1.663-4.536 4.029-5.863 6.777-1.803 3.732-6.46 5.081-9.979 2.89-12.481-7.77-22.806-15.611-30.838-22.357-9.39-7.88-6.82-22.91 4.64-27.25 56.502-21.36 117.231-31.473 178.731-28.987z" fill="#d94351"/><path d="m309.147 205.841c-79.211-9.146-142.614 52.345-142.614 126.112 0 .512-.001 10.954.002 11.466.087 15.157-20.708 19.247-26.351 5.179-4.936-12.304-7.651-25.738-7.651-39.805v-88.03c0-19.875 13.519-37.246 32.83-41.98 47.537-11.705 98.526-12.265 148.34 0 17.447 4.34 12.274 29.001-4.556 27.058z" fill="#ff8c98"/><path d="m463.93 205.262c-22.745 24.293-48.124 44.843-75.435 61.082-3.755 2.233-8.759 1.242-11.093-2.451-2.418-3.825-1.189-8.866 2.677-11.16 26.107-15.492 50.39-35.144 72.172-58.407 15.849-16.927 14.368-44.545-4.899-59.12-41.789-31.611-91.15-53.521-142.75-63.362-10.89-2.075-21.953 1.556-29.599 9.715-16.87 18.005-44.138 20.113-63.442 6.319-4.096-2.927-4.464-8.89-.79-12.333 2.763-2.589 6.979-2.922 10.035-.725 12.941 9.304 31.188 7.896 42.521-4.2 11.417-12.186 27.966-17.603 44.272-14.493 54.002 10.299 105.665 33.231 149.404 66.319 26.444 20.004 29.566 58.637 6.927 82.816zm-77.553.033c8.215-5.521 16.162-11.496 23.621-17.76 14.032-11.783 10.271-34.337-6.886-40.83-102.725-38.885-218.71-40.887-326.793-.025-17.198 6.501-21.02 29.05-6.96 40.856 16.947 14.232 35.537 26.375 55.319 36.154v42.956c-44.75-20.712-77.753-50.336-98.075-72.334-15.61-16.897-14.079-44.339 5.121-58.893 40.666-30.828 86.659-51.791 136.701-62.307 4.324-.909 7.093-5.15 6.184-9.475s-5.151-7.087-9.474-6.184c-52.375 11.007-100.513 32.949-143.077 65.216-26.271 19.913-29.58 58.284-7.208 82.5 22.331 24.172 59.273 57.14 109.827 79.018v24.612c0 63.411 51.589 115 115 115s115-51.589 115-115v-88.024c0-23.679-16.065-44.156-39.067-49.796-12.309-3.019-24.928-5.324-37.506-6.854-4.389-.539-8.375 2.59-8.907 6.976-.533 4.386 2.59 8.374 6.976 8.907 11.948 1.453 23.935 3.644 35.627 6.51 15.825 3.881 26.877 17.968 26.877 34.257v88.024c0 54.589-44.411 99-99 99s-99-44.411-99-99c0-21.145 0-84.662 0-88.026 0-16.28 10.994-30.352 26.734-34.219 21.056-5.172 42.636-8.068 64.266-8.644v42.889c0 4.418 3.582 8 8 8s8-3.582 8-8v-51c0-4.426-3.587-8.002-8-8.002-25.586.001-51.184 3.103-76.083 9.219-18.218 4.475-32.057 18.33-36.968 35.714-16.72-8.732-32.487-19.277-46.978-31.445-4.706-3.953-3.42-11.466 2.328-13.638 99.618-37.662 211.583-39.303 315.472.022 5.703 2.158 6.948 9.676 2.26 13.614-7.023 5.898-14.511 11.528-22.255 16.732-3.667 2.464-4.642 7.435-2.177 11.102 2.464 3.669 7.435 4.645 11.101 2.178zm-99.7 60.504c-8.271 0-15-6.729-15-15 0-4.418-3.582-8-8-8s-8 3.582-8 8c0 17.094 13.907 31 31 31s31-13.906 31-31-13.907-31-31-31c-4.418 0-8 3.582-8 8s3.582 8 8 8c8.271 0 15 6.729 15 15 0 8.272-6.729 15-15 15zm-24.5 68c7.995 0 14.5 6.505 14.5 14.5s-6.505 14.5-14.5 14.5-14.5-6.505-14.5-14.5 6.505-14.5 14.5-14.5zm-69.5-55c16.542 0 30 13.458 30 30s-13.458 30-30 30-30-13.458-30-30 13.458-30 30-30zm0 16c-7.72 0-14 6.28-14 14s6.28 14 14 14 14-6.28 14-14-6.28-14-14-14z"/></svg>