<svg id="Layer_1" enable-background="new 0 0 480 480" height="512" viewBox="0 0 480 480" width="512" xmlns="http://www.w3.org/2000/svg"><path d="m472 147.98v137.44c0 8.84-7.16 16-16 16h-79.67c-21.97 0-43.25 7.68-60.17 21.7-50.82 42.144-36.609 31.125-64.49 50.53-11.03 6.79-25.05 6.35-35.64-1.12l-124.37-87.73c-2.7-1.91-5.92-2.93-9.23-2.93h-58.43c-8.84 0-16-7.16-16-16v-117.89c0-8.84 7.16-16 16-16h57.32c3.98 0 7.82-1.48 10.77-4.16l43.5-39.55c5.96-5.42 13.73-8.42 21.78-8.42h165.26c8.05 0 15.82 3 21.78 8.42l43.5 39.55c2.95 2.68 6.79 4.16 10.77 4.16h57.32c8.84 0 16 7.161 16 16z" fill="#ffebd2"/><path d="m288.24 186.16 30.47 44.19c-52.379 18.975-73.514 81.185-44.9 127.89l-22.14 15.41c-11.03 6.79-25.05 6.35-35.64-1.12l-124.373-87.734c-2.699-1.904-5.92-2.926-9.223-2.926h-58.434c-8.837 0-16-7.163-16-16v-117.89c0-8.837 7.163-16 16-16h57.324c3.98 0 7.818-1.484 10.763-4.161l43.503-39.549c5.96-5.42 13.73-8.42 21.78-8.42h95.59c-8.3 0-16.26 3.3-22.12 9.16l-52.88 52.88c-12.051 12.051-13.219 31.508-2.103 44.426 10.211 11.867 27.276 14.668 40.663 7.003l29.11-16.67c14.53-8.319 33.01-4.199 42.61 9.511z" fill="#ffdfba"/><path d="m252.96 79.851c-21.96 3.466-30.293 18.3-52.96 40h-2.63c-8.05 0-15.82 3-21.78 8.42l-43.5 39.55c-2.95 2.68-6.79 4.16-10.77 4.16h-61.98c-6.263 0-11.34 5.077-11.34 11.34v54.55c0 13.911-11.835 25.058-25.986 23.92-7.935-.639-14.014-7.343-14.014-15.303v-103.168c0-6.263 5.077-11.34 11.34-11.34h61.98c3.98 0 7.82-1.48 10.77-4.16l43.5-39.55c5.96-5.42 13.73-8.42 21.78-8.42h95.59z" fill="#ffebd2"/><path d="m344.41 88.271c8.389 7.625 2.994 21.58-8.342 21.58h-33.108c-8.3 0-16.26 3.3-22.12 9.16-57.48 57.481-56.187 55.19-59.539 62.393-8.062 17.326-30.752 21.98-45.441 4.917-11.12-12.92-9.95-32.38 2.1-44.43l52.88-52.88c5.86-5.86 13.82-9.16 22.12-9.16h69.67c8.05 0 15.82 3 21.78 8.42z" fill="#fff3e4"/><path d="m435.995 312.673c0 48.32-39.18 87.5-87.5 87.5-25.35 0-48.19-10.78-64.17-28.02-45.727-49.298-20.786-129.988 44.78-144.82 54.843-12.393 106.89 29.286 106.89 85.34z" fill="#d6f4fc"/><path d="m384.995 312.673c0 26.822-28.687 45.033-53.08 32.47-25.089-12.949-26.722-47.774-3.38-63.03 24.391-15.978 56.46 2.002 56.46 30.56z" fill="#fe4f60"/><path d="m355.86 298.381c-9.884 3.747-17.883 11.751-21.637 21.626-4.123 10.847-20.23 9.198-21.84-2.293-3.461-24.705 17.811-44.505 41.114-41.178 11.504 1.641 13.229 17.725 2.363 21.845z" fill="#ff6d7a"/><path d="m480 301.423c0 4.418-3.582 8-8 8h-6.333c-4.418 0-8-3.582-8-8s3.582-8 8-8h6.333c4.418 0 8 3.582 8 8zm-308.13-107.647c12.855 12.853 32.85 15.52 48.623 6.488l29.117-16.674c11.009-6.306 24.802-3.224 32.083 7.164l13.942 19.891c1.557 2.221 4.037 3.409 6.558 3.409 6.412 0 10.275-7.27 6.544-12.593l-13.942-19.891c-12.059-17.205-34.902-22.306-53.136-11.865l-29.117 16.674c-9.524 5.455-21.598 3.844-29.357-3.918-9.508-9.507-9.508-24.976 0-34.482l53.311-53.311c4.396-4.397 10.243-6.819 16.462-6.819h69.67c6.078 0 11.903 2.252 16.401 6.342l48.084 43.714c1.473 1.338 3.392 2.08 5.382 2.08h79.505c4.418 0 8-3.582 8-8s-3.582-8-8-8h-76.413l-45.796-41.634c-7.449-6.772-17.097-10.502-27.164-10.502h-69.67c-10.492 0-20.356 4.086-27.776 11.505l-53.311 53.311c-15.745 15.746-15.745 41.365 0 57.111zm-163.87-53.791h79.506c1.99 0 3.909-.742 5.382-2.08l48.083-43.714c4.499-4.09 10.324-6.342 16.402-6.342h25.278c4.418 0 8-3.582 8-8s-3.582-8-8-8h-25.278c-10.067 0-19.715 3.729-27.165 10.503l-45.795 41.633h-76.413c-4.418 0-8 3.582-8 8s3.582 8 8 8zm239.477 226.848c-8.318 5.121-18.853 4.79-26.832-.84-138.764-97.878-129.465-92.121-133.139-92.121h-79.506c-4.418 0-8 3.582-8 8s3.582 8 8 8h76.969l126.453 89.195c13.2 9.31 30.64 9.885 44.441 1.393 3.763-2.316 4.936-7.243 2.62-11.007-2.315-3.761-7.241-4.935-11.006-2.62zm145.495-55.279c-.288-11.808-5.185-22.493-12.974-30.306l6.714-9.635c2.526-3.625 1.636-8.611-1.989-11.138-3.624-2.525-8.612-1.637-11.138 1.989l-6.734 9.663c-11.349-5.161-24.275-5.273-35.589-.501l-5.852-8.961c-2.416-3.7-7.375-4.738-11.072-2.324-3.699 2.416-4.74 7.373-2.324 11.072l5.87 8.988c-19.942 18.942-18.1 50.934 3.593 67.571l-3.388 6.634c-2.009 3.935-.448 8.754 3.486 10.764 3.938 2.01 8.755.446 10.764-3.486l3.378-6.614c7.481 2.249 15.205 2.418 22.365.844 4.315-.948 7.045-5.215 6.097-9.53s-5.214-7.045-9.53-6.097c-5.773 1.269-12.012.751-17.74-1.811-.825-.642-1.681-1.078-2.675-1.37-17.82-10.351-19.175-35.507-2.5-47.682.909-.38 1.65-.824 2.471-1.613 8.945-5.21 20.197-5.216 29.256.395.778.791 1.501 1.261 2.413 1.675 8.078 6.232 12.403 16.39 10.799 26.916-.623 4.099 1.983 8.31 6.748 9.118 17.074 3.013 16.218 2.915 17.218 2.915 3.809 0 7.184-2.729 7.868-6.61.769-4.352-2.137-8.501-6.487-9.269zm51.028 1.096c0 52.659-42.841 95.5-95.5 95.5s-95.5-42.84-95.5-95.5 42.841-95.5 95.5-95.5 95.5 42.841 95.5 95.5zm-16 0c0-43.837-35.663-79.5-79.5-79.5s-79.5 35.663-79.5 79.5 35.663 79.5 79.5 79.5 79.5-35.663 79.5-79.5z"/></svg>