<svg id="Layer_1" enable-background="new 0 0 480 480" height="512" viewBox="0 0 480 480" width="512" xmlns="http://www.w3.org/2000/svg"><path d="m427.82 332.29c-14.27-52.77-33.66-81.87-60.63-128.1-30.657-52.534-104.937-58.564-143.64-9.95-3.363 4.398-5.911 8.606-8.56 13.06-29.149 49.805-70.99 111.459-70.99 216.7 0 26.51 21.49 48 48 48h200c26.51 0 48-21.49 48-48 0-31.11-4.13-61.94-12.18-91.71zm-47.82 54.71c0 17.67-14.33 32-32 32h-112c-17.705 0-32-14.361-32-32v-6.53c0-40.14 18.16-78.12 49.39-103.32 22.555-18.203 54.725-18.147 77.22 0 31.3 25.26 49.39 63.25 49.39 103.32z" fill="#ffe773"/><path d="m265.782 165.046c18.89-5.926 30.851 20.021 14.2 30.732-17.371 11.174-25.051 24.226-29.992 32.522-48.61 83.046-69.824 151.699-71.797 196.761-.969 22.143-33.851 21.845-34.188-.316-1.576-103.697 44.153-171.605 70.985-217.445 2.65-4.45 5.2-8.66 8.56-13.06 11.593-14.563 26.381-24.222 42.232-29.194z" fill="#ffec8f"/><path d="m215 206.5c0 48.32-39.18 87.5-87.5 87.5-25.35 0-48.19-10.78-64.17-28.02-45.727-49.298-20.786-129.988 44.78-144.82 54.843-12.392 106.89 29.286 106.89 85.34z" fill="#d6f4fc"/><path d="m164 206.5c0 26.822-28.687 45.033-53.08 32.47-25.089-12.949-26.722-47.774-3.38-63.03 24.391-15.977 56.46 2.002 56.46 30.56z" fill="#fe4f60"/><path d="m134.865 192.208c-9.884 3.747-17.883 11.751-21.637 21.626-4.123 10.847-20.23 9.198-21.84-2.293-3.461-24.705 17.811-44.505 41.114-41.178 11.504 1.641 13.229 17.725 2.363 21.845z" fill="#ff6d7a"/><path d="m448 424c0 30.879-25.121 56-56 56h-200c-30.879 0-56-25.121-56-56 0-31.94 4.262-63.761 12.667-94.576 1.162-4.263 5.562-6.778 9.823-5.612 4.263 1.162 6.775 5.561 5.612 9.823-8.03 29.443-12.102 59.846-12.102 90.365 0 22.056 17.944 40 40 40h200c22.056 0 40-17.944 40-40 0-60.734-16.176-120.566-46.777-173.027l-24.939-42.753c-7.113-12.193-17.386-22.279-29.708-29.169-3.856-2.155-5.234-7.03-3.078-10.887s7.029-5.235 10.887-3.078c14.815 8.282 27.167 20.41 35.72 35.071l24.939 42.753c32.027 54.906 48.956 117.526 48.956 181.09zm-100-13h-112c-4.418 0-8 3.582-8 8s3.582 8 8 8h112c22.056 0 40-17.944 40-40v-6.533c0-42.765-19.089-82.692-52.371-109.546-25.448-20.532-61.828-20.517-87.258 0-33.282 26.853-52.371 66.781-52.371 109.546v6.533c0 4.418 3.582 8 8 8s8-3.582 8-8v-6.533c0-37.903 16.919-73.293 46.418-97.093 19.458-15.699 47.704-15.699 67.164 0 29.499 23.8 46.418 59.189 46.418 97.093v6.533c0 13.233-10.767 24-24 24zm-166.981-204-9.046-1.597c-.288-11.808-5.185-22.493-12.974-30.306l6.714-9.635c2.526-3.625 1.636-8.611-1.989-11.138-3.624-2.525-8.612-1.637-11.138 1.989l-6.734 9.663c-11.349-5.161-24.275-5.273-35.589-.501l-5.852-8.961c-2.416-3.7-7.375-4.739-11.072-2.324-3.699 2.416-4.74 7.373-2.324 11.072l5.87 8.988c-19.942 18.942-18.1 50.934 3.593 67.571l-3.388 6.634c-2.726 5.34 1.189 11.641 7.118 11.641 2.91 0 5.717-1.594 7.132-4.363l3.378-6.614c7.481 2.249 15.205 2.418 22.365.844 4.315-.948 7.045-5.215 6.097-9.53-.949-4.315-5.217-7.045-9.53-6.097-5.773 1.269-12.012.751-17.74-1.811-.825-.642-1.681-1.078-2.675-1.37-17.82-10.351-19.175-35.507-2.5-47.682.909-.38 1.65-.824 2.471-1.613 8.945-5.21 20.197-5.216 29.256.395.778.791 1.501 1.261 2.413 1.675 8.078 6.232 12.403 16.39 10.799 26.916-.664 4.368 2.338 8.448 6.705 9.113.118.016 15.744 2.775 15.86 2.796 4.355.768 8.502-2.139 9.269-6.487.766-4.351-2.139-8.5-6.489-9.268zm-53.519 95c-52.659 0-95.5-42.841-95.5-95.5s42.841-95.5 95.5-95.5c45.351 0 83.416 31.775 93.11 74.23 15.598-17.716 38.04-29.76 63.39-31.878v-58.031c-22.671-3.821-40-23.58-40-47.321 0-26.468 21.532-48 48-48s48 21.532 48 48c0 23.741-17.329 43.5-40 47.321v106.679c0 4.418-3.582 8-8 8s-8-3.582-8-8v-32.589c-17.279 1.74-33.467 9.085-46.244 21.134-5.858 5.525-9.101 9.639-14.808 18.974-1.601 51.267-43.799 92.481-95.448 92.481zm164.5-222c17.645 0 32-14.355 32-32s-14.355-32-32-32-32 14.355-32 32 14.355 32 32 32zm-85 126.5c0-43.837-35.663-79.5-79.5-79.5s-79.5 35.663-79.5 79.5 35.663 79.5 79.5 79.5 79.5-35.663 79.5-79.5z"/></svg>