<svg id="Layer_1" enable-background="new 0 0 480 480" height="512" viewBox="0 0 480 480" width="512" xmlns="http://www.w3.org/2000/svg"><path d="m162.01 140.55c13.38-6.68 23.79-18.15 29.46-32 7.93-19.38 26.93-32.55 48.53-32.55s40.6 13.17 48.53 32.55c6.049 14.907 16.174 25.392 29.35 31.95 46.143 22.975 77.12 70.433 77.12 124.5 0 76.789-62.243 139-139 139h-30.54c-76.993 0-140.433-61.969-140.46-138.96-.019-54.126 30.988-101.513 77.01-124.49z" fill="#d6f4fc"/><path d="m252.362 77.453c11.802 2.804 13.98 18.849 3.265 24.536-10.27 5.451-19.212 14.476-24.157 26.561-5.67 13.85-16.08 25.32-29.46 32-66.317 33.11-91.294 108.285-68.948 171.03 5.18 14.546-14.526 24.737-23.352 12.067-47.94-68.822-23.8-165.102 52.3-203.097 13.38-6.68 23.79-18.15 29.46-32 10.438-25.51 37.158-36.736 60.892-31.097z" fill="#e8f8fc"/><path d="m294 283h-108c-4.418 0-8-3.582-8-8s3.582-8 8-8h108c4.418 0 8 3.582 8 8s-3.582 8-8 8zm-84 44c-4.418 0-8 3.582-8 8s3.582 8 8 8h60c4.418 0 8-3.582 8-8s-3.582-8-8-8zm60-120h-60c-4.418 0-8 3.582-8 8s3.582 8 8 8h60c4.418 0 8-3.582 8-8s-3.582-8-8-8zm154.347-22.49c-4.135-1.56-8.749.528-10.309 4.662-1.559 4.134.528 8.749 4.662 10.309 27.095 10.219 45.3 36.55 45.3 65.519 0 38.598-31.402 70-70 70h-8.665c38.907-71.662 11.818-163.964-63.892-201.665-11.68-5.816-20.626-15.414-25.19-27.026-2.564-6.523-6.215-12.504-10.853-17.773-2.918-3.315-7.974-3.638-11.291-.721-3.317 2.919-3.64 7.974-.721 11.291 3.407 3.872 6.09 8.265 7.973 13.057 6.016 15.305 17.717 27.911 32.95 35.495 72.356 36.031 93.519 126.093 50.738 190.01-1.097 1.223-35.313 58.332-109.049 58.332h-30.542c-73.017 0-132.437-58.749-132.458-130.961-.015-51.922 29.908-96.03 72.582-117.327 14.992-7.481 26.814-20.312 33.289-36.129 6.858-16.756 23.003-27.583 41.129-27.583 4.418 0 8-3.582 8-8s-3.582-8-8-8c-24.649 0-46.606 14.729-55.937 37.521-5.005 12.226-14.106 22.125-25.626 27.874-21.605 10.785-39.873 26.535-53.687 45.605h-18.75c-47.42 0-86 38.579-86 86 0 39.152 26.431 73.378 64.276 83.23 4.285 1.114 8.646-1.459 9.758-5.727 1.113-4.276-1.451-8.645-5.727-9.758-30.798-8.016-52.307-35.875-52.307-67.745 0-38.598 31.402-70 70-70h8.665c-52.988 97.594 18.404 217 130.793 217h30.542c48 0 91.66-22.911 119.25-61h18.75c47.42 0 86-38.579 86-86 0-35.588-22.365-67.934-55.653-80.49zm-152.176-33.21c-15.091-4.254-17.507-13.3-32.208-13.3-14.577 0-17.077 9.056-32.133 13.3-4.252 1.199-6.728 5.618-5.529 9.871s5.62 6.727 9.871 5.529c17.285-4.873 20.025-12.7 27.815-12.7 7.845 0 10.525 7.818 27.843 12.7 4.274 1.201 8.677-1.295 9.871-5.529 1.198-4.253-1.278-8.672-5.53-9.871z"/></svg>