<svg id="Layer_1" enable-background="new 0 0 480.045 480.045" height="512" viewBox="0 0 480.045 480.045" width="512" xmlns="http://www.w3.org/2000/svg"><path d="m472.036 138.045c0 71.57-42.49 129.63-95 130h-96v180c0 13.25-10.75 24-24 24h-225c-13.25 0-24-10.75-24-24v-310h.33c0-71.8 42.69-130 95.34-130h272.83c52.74 0 95.5 58.2 95.5 130z" fill="#e8f8fc"/><path d="m376.536 8.045c52.74 0 95.5 58.2 95.5 130 0 71.787-42.754 130-95.5 130-52.74 0-95.5-58.2-95.5-130s42.76-130 95.5-130z" fill="#d6f4fc"/><path d="m281.036 138.045c0 71.8 42.76 130 95.5 130h-95.5c0-7.092 0-124.79 0-130z" fill="#bdeffc"/><ellipse cx="376.536" cy="138.045" fill="#42434d" rx="31.5" ry="45"/><path d="m376.536 8.045c-27.08 0-51.53 15.34-68.91 40-126.821 0-229.747 102.821-229.68 229.793.021 39.482.078 93.284.088 170.195.002 13.256-10.744 24.012-24 24.012h-21.998c-13.255 0-24-10.745-24-24v-310h.33c0-71.8 42.69-130 95.34-130h272.83z" fill="#f1fafc"/><path d="m376.536 85.045c-22.149 0-39.5 23.28-39.5 53s17.351 53 39.5 53 39.5-23.28 39.5-53-17.351-53-39.5-53zm0 90c-12.738 0-23.5-16.944-23.5-37s10.762-37 23.5-37 23.5 16.944 23.5 37-10.762 37-23.5 37zm-376.5 173c0-225.104-.172-210.65.355-212.359.918-73.792 45.549-135.641 103.312-135.641h165.333c4.418 0 8 3.582 8 8s-3.582 8-8 8h-165.333c-48.156 0-87.333 54.729-87.333 122 0 .792-.119 1.555-.333 2.277v199.723h208c4.418 0 8 3.582 8 8s-3.582 8-8 8c-1.944 0-213.972 0-216 0-4.419 0-8.001-3.582-8.001-8zm450.476-306.66c-40.465-55.084-107.346-55.275-147.951 0-19.039 25.917-29.524 60.245-29.524 96.66v12h-207.668c-4.418 0-8 3.582-8 8s3.582 8 8 8h207.667v282c0 8.822-7.178 16-16 16h-225c-8.822 0-16-7.178-16-16v-58c0-4.418-3.582-8-8-8s-8 3.582-8 8v58c0 17.645 14.355 32 32 32h225c17.645 0 32-14.355 32-32v-172h88c56.236 0 103-61.051 103-138 0-36.415-10.485-70.743-29.524-96.66zm-73.976 218.66c-20.52 0-40.505-10.204-56.275-28.733-2.863-3.364-7.911-3.771-11.277-.906-3.364 2.863-3.771 7.912-.906 11.277 6.128 7.2 12.834 13.342 19.96 18.362h-39.001v-122c0-67.271 39.252-122 87.5-122s87.5 54.729 87.5 122-39.253 122-87.501 122z"/></svg>