<svg id="Layer_1" enable-background="new 0 0 480.001 480.001" height="512" viewBox="0 0 480.001 480.001" width="512" xmlns="http://www.w3.org/2000/svg"><path d="m433.682 253.75c1.95 12.46-5.65 24.42-17.76 27.96-9.66 2.81-19.33 5.63-28.99 8.45l5.66 43.04c2.57 19.52-12.21 37.03-31.89 37.78l-45.88 1.74 14.394 80.463c1.755 9.808-5.786 18.817-15.75 18.817h-157.164c-8.837 0-16-7.163-16-16v-118.21c-47.612-34.336-78.38-87.181-78.38-149 0-100.14 80.65-180.79 180.79-180.79 99.85 0 180.79 80.94 180.79 180.79z" fill="#ffebd2"/><path d="m302.544 18.134c27.439 9.618 20.492 50.067-8.583 49.87-93.921-.636-164.448 66.771-179.302 149.666-5.071 28.303-45.994 28.057-50.505-.341-21.611-136.064 109.901-244.235 238.39-199.195z" fill="#fff3e4"/><circle cx="224.952" cy="406" fill="#fe4f60" r="39"/><path d="m214.085 368.574c9.644-2.848 15.954 10.005 7.844 15.949-10.018 7.342-16.086 18.999-15.976 31.811.086 10.051-13.792 12.932-17.414 3.556-7.971-20.636 2.772-44.59 25.546-51.316z" fill="#ff6d7a"/><path d="m400.523 332.154c3.188 24.223-15.201 45.895-39.515 46.818l-36.692 1.393 16.146 90.225c.875 4.892-2.879 9.41-7.885 9.41-3.801 0-7.172-2.719-7.865-6.592-19.081-106.63-18.651-100.836-17.137-104.065.844-1.817 2.415-3.35 4.421-4.103 1.752-.663-1.128-.376 48.405-2.257 14.977-.57 26.219-13.844 24.259-28.742-.576-4.381 2.508-8.399 6.888-8.976 4.385-.572 8.398 2.509 8.975 6.889zm41.06-79.646-10.078-64.345c-.34-103.812-84.901-188.163-188.791-188.163-104.621 0-188.795 84.144-188.793 188.794 0 45.876 16.655 90.104 46.897 124.536 1.582 1.801 3.792 2.721 6.014 2.721 6.829 0 10.557-8.1 6.008-13.279-27.677-31.511-42.919-71.989-42.919-113.978 0-95.781 76.988-172.794 172.793-172.794 95.278 0 172.792 77.515 172.792 172.793 0 .969-.585-3.116 10.271 66.19 1.324 8.459-3.874 16.645-12.094 19.042l-28.993 8.457c-4.241 1.237-6.677 5.679-5.439 9.92 1.237 4.242 5.68 6.679 9.92 5.439l28.992-8.457c15.917-4.641 25.985-20.494 23.42-36.876zm-301.284 77.286c-4.418 0-8 3.582-8 8v134.206c0 4.418 3.582 8 8 8s8-3.582 8-8v-134.206c0-4.418-3.582-8-8-8zm142.044 77.328-10.409-1.837c-.193-12.812-5.53-24.395-14.043-32.77l7.624-10.941c2.526-3.625 1.636-8.611-1.989-11.138-3.627-2.528-8.612-1.636-11.138 1.989l-7.639 10.962c-12.171-5.677-26.171-5.84-38.419-.532l-6.68-10.229c-2.416-3.699-7.372-4.739-11.072-2.324-3.699 2.416-4.74 7.373-2.324 11.072l6.694 10.25c-21.515 20.043-19.556 54.393 3.823 71.965l-3.96 7.754c-2.726 5.34 1.189 11.641 7.118 11.641 2.91 0 5.717-1.594 7.132-4.363l3.949-7.731c11.845 3.686 24.606 2.462 35.328-3.027 3.934-2.013 5.49-6.833 3.477-10.766-2.013-3.932-6.832-5.491-10.766-3.477-20.488 10.484-45.096-4.446-45.096-27.619 0-17.094 13.906-31 31-31 18.859 0 33.521 16.823 30.644 35.726-.658 4.312 2.275 8.513 6.876 9.132.464.089 16.623 2.938 17.09 3.021 4.355.768 8.502-2.139 9.269-6.487.766-4.354-2.139-8.503-6.489-9.271zm-190.408-63.706c-2.551-4.672-8.896-5.609-12.681-1.826l-13.713 13.714-12.527-22.548c-2.146-3.862-7.016-5.254-10.878-3.108s-5.254 7.017-3.108 10.878l17.678 31.819c2.575 4.638 8.887 5.531 12.65 1.772l13.652-13.653 11.851 21.727c2.113 3.873 6.967 5.311 10.854 3.192 3.879-2.116 5.308-6.976 3.192-10.854zm.215 77.3-20.817 11.354c-4.689 2.558-5.594 8.911-1.826 12.681l6.695 6.694-12.02 6.677c-3.862 2.146-5.254 7.016-3.108 10.878 2.148 3.867 7.021 5.251 10.878 3.108l21.291-11.827c4.646-2.58 5.525-8.896 1.772-12.65l-6.635-6.634 11.432-6.234c3.879-2.116 5.308-6.976 3.192-10.854-2.116-3.88-6.976-5.308-10.854-3.193zm303.571 27.406-12.02-6.677 6.695-6.694c3.777-3.779 2.853-10.129-1.826-12.681l-20.817-11.354c-3.879-2.114-8.739-.687-10.854 3.192s-.687 8.738 3.192 10.854l11.432 6.234-6.635 6.634c-3.758 3.76-2.866 10.074 1.772 12.65 23.069 12.815 22.398 12.835 25.169 12.835 8.195.001 11.11-10.984 3.892-14.993z"/></svg>