<svg id="Layer_1" enable-background="new 0 0 480.361 480.361" height="512" viewBox="0 0 480.361 480.361" width="512" xmlns="http://www.w3.org/2000/svg"><path d="m287.958 8.361h-65.66c-72.17 0-130.67 58.5-130.67 130.67v317.33c0 8.84 7.16 16 16 16h295c8.84 0 16-7.16 16-16v-317.33c0-72.099-58.417-130.67-130.67-130.67z" fill="#ffebd2"/><path d="m225.05 357.776c21.368 13.363 4.504 46.153-18.885 36.767-48.103-19.305-81.706-66.179-81.706-120.734v-53.213c0-4.832 4.308-8.536 9.088-7.774 3.591.575 7.173.961 10.735 1.164 10.987.625 19.575 9.706 19.575 20.71v12.848c-.001 47.931 25.198 87.722 61.193 110.232z" fill="#fff3e4"/><path d="m418.628 139.031v317.33c0 8.837-7.163 16-16 16h-43.51c-30.11 0-54.55-24.46-54.55-54.74v-23.812l-.6.252c47.26-19.47 80.52-65.98 80.52-120.26v-66.483c0-3.419-2.152-6.486-5.385-7.599-23.617-8.128-43.857-24.511-56.63-46.964-2.966-5.215-10.364-5.503-13.657-.488-13.556 20.65-31.724 36.789-52.645 47.994-5.372 2.877-11.76-1.142-11.736-7.236.017-4.359-.486-8.742-1.524-13.049-1.517-6.292-9.503-8.311-13.771-3.445-24.654 28.112-59.504 41.958-95.969 38.234-4.675-.477-8.712 3.269-8.712 7.968 0 55.408-.323 57.213 1.1 68.047 0 1.729 2.292 14.602 5.2 23.11 11.466 35.641 38.559 65.479 74.22 80.17l-.6-.249v23.809c0 30.28-24.44 54.74-54.55 54.74h-42.2c-8.837 0-16-7.163-16-16v-317.33c0-72.167 58.503-130.67 130.67-130.67.001 0 69.029.04 69.03.04 73.134 2.112 127.299 61.68 127.299 130.631z" fill="#42434d"/><path d="m304.567 393.809v20.772c-32.101 13.781-70.357 12.786-100.19 0v-20.769l.678.249c31.808 13.185 67.329 13.25 99.512-.252z" fill="#ffdfba"/><path d="m330.597 47.801c-2.6-.07-67.55-.04-68.9-.04-72.17 0-130.67 58.5-130.67 130.67v34.4c-3.616.603-6.57 3.757-6.57 7.76 0 55.604-1.523 68.329 5.93 92.16.952 3.016.64-10.676.64 159.61h-23.4c-8.837 0-16-7.163-16-16v-317.33c0-72.167 58.503-130.67 130.67-130.67 71.439 0 69.03.04 69.03.04 18.403.531 35.766 4.99 46.45 9.8 15.26 6.86 9.881 30.01-7.18 29.6z" fill="#4d4e59"/><path d="m379.626 121.29 20.72-29.235c1.127-1.591.944-3.763-.435-5.141l-24.685-24.685c-1.979-1.979-1.362-5.329 1.191-6.478 10.565-4.755 6.871-3.093 67.302-30.277 3.717-1.672 7.269 2.632 4.912 5.957l-20.72 29.236c-1.127 1.591-.944 3.763.435 5.141l24.684 24.684c1.98 1.98 1.362 5.329-1.191 6.478-40.602 18.265-30.98 13.936-67.301 30.277-3.717 1.673-7.269-2.632-4.912-5.957z" fill="#ffe773"/><path d="m448.628 31.43-7.696 10.855c-1.27 1.792 2.038-.16-54.764 25.465-2.441 1.093-4.842.578-6.379-.959l-4.557-4.557c-1.981-1.981-1.364-5.334 1.19-6.485 10.555-4.758 6.873-3.092 67.296-30.279 3.72-1.669 7.269 2.631 4.91 5.96z" fill="#ffec8f"/><path d="m325.927 226.761-23.466 17.6 23.466 17.6c6.143 4.608 2.844 14.4-4.806 14.4-1.67.001-3.354-.521-4.793-1.6l-32-24c-4.268-3.202-4.259-9.605 0-12.801l32-24c3.535-2.65 8.549-1.934 11.2 1.601s1.934 8.549-1.601 11.2zm92.701-85.731c-4.418 0-8 3.582-8 8v323.331c0 4.418 3.582 8 8 8s8-3.582 8-8v-323.331c0-4.418-3.582-8-8-8zm-196.332-124.669h65.663c19.836 0 38.762 4.585 56.253 13.628 3.923 2.027 8.75.491 10.78-3.433 2.029-3.925.492-8.751-3.433-10.78-19.505-10.085-41.497-15.415-63.6-15.415h-65.663c-76.462 0-138.668 62.207-138.668 138.669v333.331c0 4.418 3.582 8 8 8s8-3.582 8-8v-333.331c0-67.64 55.028-122.669 122.668-122.669zm240.488 72.576c3.954 3.954 2.727 10.657-2.375 12.953l-86 38.688c-7.4 3.331-14.51-5.289-9.809-11.922l27.268-38.474-26.397-26.397c-3.954-3.954-2.727-10.657 2.375-12.953l86-38.688c7.4-3.331 14.511 5.289 9.809 11.922l-27.268 38.474zm-19.51 3.117-22.975-22.975c-2.757-2.758-3.125-7.102-.87-10.283l14.177-20.003-48.625 21.874 22.975 22.975c2.757 2.758 3.125 7.102.87 10.283l-14.177 20.003zm-55.771 101.949c-1.638-.666-20.343-4.831-38.415-20.898-14.08-12.519-21.615-26.688-25.458-36.37-2.516-6.337-11.361-6.83-14.531-.745-12.372 23.745-31.613 43.816-56.662 57.21.062-10.689-2.59-21.435-8.066-31.17-2.919-5.189-10.254-5.45-13.575-.596-17.811 26.034-43.786 43.396-75.326 44.105-4.417.1-7.917 3.761-7.818 8.178.098 4.356 3.66 7.82 7.995 7.82 7.575 0 19.18-1.47 30.718-5.438-2.203 3.489-1.396 8.141 1.963 10.661l23.466 17.6-23.466 17.6c-6.143 4.608-2.84 14.403 4.806 14.4 1.67 0 3.354-.521 4.793-1.6l32-24c4.268-3.202 4.259-9.605 0-12.801-34.75-26.063-32.664-24.791-34.792-25.343 17.708-8.018 30.981-20.111 40.028-30.648 1.759 7.408 1.715 15.145-.252 22.668-1.669 6.382 4.701 11.943 10.801 9.415 29.846-12.362 53.455-32.51 69.784-57.387 14.053 24.695 36.096 42.03 60.986 50.609v66.528c0 67.277-54.734 122.012-122.012 122.012-67.277 0-122.012-54.734-122.012-122.012v-30.369c0-4.418-3.582-8-8-8s-8 3.582-8 8v30.369c0 55.357 32.766 103.199 79.918 125.17v18.647c0 12.504-4.847 24.25-13.648 33.076-15.587 15.629-35.244 13.665-32.902 13.665-4.418 0-8 3.582-8 8s3.582 8 8 8c34.579 0 62.551-28.039 62.551-62.741v-12.378c89.751 28.809 180.105-39.36 180.105-130.641 0-.567.002-72.701-.004-73.266-.027-3.19-1.957-6.098-4.975-7.33zm-28.498 270.358c-16.398.001-31.279-8.403-39.806-22.48-2.289-3.779-7.208-4.986-10.988-2.698-3.779 2.289-4.987 7.209-2.698 10.987 11.452 18.906 31.45 30.192 53.493 30.191 4.418 0 8-3.582 8-8 0-4.419-3.582-8-8.001-8zm-272.924-418.472-16.971-31.112c-2.571-4.714-8.935-5.571-12.68-1.826l-13.713 13.713-12.527-22.548c-2.145-3.862-7.016-5.254-10.878-3.108s-5.254 7.017-3.108 10.878l17.678 31.819c2.58 4.646 8.896 5.525 12.65 1.772l13.653-13.653 11.851 21.727c2.114 3.876 6.971 5.309 10.854 3.192 3.878-2.116 5.307-6.975 3.191-10.854zm-34.754 105.187-20.817 11.354c-4.69 2.558-5.596 8.911-1.827 12.68l6.694 6.695-12.019 6.677c-3.862 2.146-5.254 7.016-3.108 10.878 2.149 3.868 7.023 5.251 10.878 3.108l21.29-11.827c4.646-2.58 5.524-8.899 1.772-12.649l-6.634-6.635 11.431-6.234c3.879-2.116 5.308-6.976 3.193-10.854s-6.975-5.309-10.853-3.193zm211.198 158.958c-2.884-2.232-6.911-2.232-9.795 0l-10.603 8.209-10.603-8.209c-2.884-2.232-6.911-2.232-9.795 0l-15.5 12c-3.494 2.705-4.133 7.73-1.428 11.224s7.73 4.134 11.223 1.429l10.603-8.209 10.603 8.209c2.884 2.232 6.911 2.232 9.795 0l10.603-8.209 10.603 8.209c2.884 2.232 6.911 2.232 9.795 0l10.603-8.209 10.603 8.209c3.495 2.704 8.52 2.063 11.223-1.429 2.705-3.493 2.065-8.519-1.428-11.224l-15.5-12c-2.884-2.232-6.911-2.232-9.795 0l-10.603 8.209z"/></svg>