<svg id="Layer_1" enable-background="new 0 0 480.361 480.361" height="512" viewBox="0 0 480.361 480.361" width="512" xmlns="http://www.w3.org/2000/svg"><path d="m409.067 113.101v123.06c0 18.91-15.33 34.24-34.24 34.24v4.12c0 54.35-33.25 100.92-80.52 120.49-2.156.88-1.729.737.05-.01l.21.5v22.12c0 16.81 7.57 30.81 19.44 40.5 5.86 4.78 2.58 14.24-4.99 14.24h-128.69c-7.55 0-10.85-9.43-5.02-14.22 11.79-9.7 19.07-23.69 19.07-40.52v-22.12l.21-.5c3.58 1.49 7.23 2.81 10.94 3.95-51.41-16.31-91.42-63.97-91.42-124.43v-4.12c-18.77 0-32.92-14.83-32.92-32.31v-128.34c0-19.63 15.92-35.55 35.55-35.55 15.9-39.75 54.42-65.84 97.25-65.84h90.34c57.85 0 104.74 46.89 104.74 104.74z" fill="#ffebd2"/><path d="m409.067 113.098v123.067c0 18.909-15.327 34.236-34.236 34.236 0-14.221 0-49.182 0-81.338 0-34.908-28.298-63.206-63.206-63.206h-134.312c-34.908 0-63.206 28.298-63.206 63.206v81.338c-18.771 0-32.92-14.833-32.92-32.314v-128.334c0-19.633 15.92-35.553 35.553-35.553 15.898-39.745 54.413-65.839 97.245-65.839h90.345c57.847 0 104.737 46.89 104.737 104.737z" fill="#42434d"/><path d="m214.952 358.702c21.433 13.409 4.532 46.293-18.93 36.876-48.239-19.363-81.915-66.371-81.915-121.055v-85.46c0-13.278 4.095-25.602 11.091-35.775 8.766-12.747 28.509-6.426 28.414 9.043-.002.323-.001 85.532-.001 85.855 0 48.077 25.272 87.949 61.341 110.516z" fill="#fff3e4"/><path d="m351.326 19.468c14.236 7.159 9.005 28.481-6.929 28.397-.46-.002-90.447-.001-90.908-.001-40.229 0-76.679 23.024-94.127 58.803-1.99 4.08-5.835 6.848-10.282 7.758-16.2 3.316-28.389 17.652-28.389 34.831v11.693c-4.214 8.467-6.584 18.014-6.584 28.113v58.592c0 14.613-18.922 20.692-27.228 8.669-3.616-5.234-5.691-11.541-5.691-18.236v-128.334c0-19.633 15.92-35.553 35.553-35.553 15.899-39.746 54.414-65.839 97.245-65.839h90.345c16.898 0 32.862 4 46.995 11.107z" fill="#4d4e59"/><path d="m294.567 395.501v19.08c-32.101 13.781-70.357 12.786-100.19 0v-19.08l.21-.5c31.07 12.88 67.21 13.47 99.77 0z" fill="#ffdfba"/><path d="m389.626 111.291 20.72-29.235c1.127-1.591.944-3.763-.435-5.141l-24.686-24.685c-1.979-1.979-1.362-5.329 1.191-6.478 10.565-4.755 6.871-3.093 67.302-30.277 3.717-1.672 7.269 2.632 4.912 5.957l-20.72 29.236c-1.127 1.591-.944 3.763.435 5.141l24.684 24.684c1.98 1.98 1.362 5.329-1.191 6.478-40.602 18.265-30.98 13.936-67.301 30.277-3.716 1.673-7.268-2.632-4.911-5.957z" fill="#ffe773"/><path d="m458.628 21.432-7.696 10.855c-1.833 2.585-2.29 1.303-54.804 25.483-2.15.99-4.665.697-6.339-.977l-4.557-4.557c-1.981-1.981-1.364-5.334 1.19-6.485 10.555-4.758 6.873-3.092 67.296-30.279 3.72-1.67 7.27 2.63 4.91 5.96z" fill="#ffec8f"/><path d="m417.07 158.1v79.991c0 4.418-3.582 8-8 8s-8-3.582-8-8v-79.991c0-4.418 3.582-8 8-8s8 3.582 8 8zm-34.237 30.967v86.256c0 90.947-89.995 159.923-180.403 131.024v11.273c0 34.792-28.059 62.741-62.549 62.741-4.426 0-8.002-3.587-8.002-8 0-4.418 3.582-8 8-8 25.719 0 46.551-20.868 46.551-46.741v-17.515c-46.481-21.569-79.059-68.197-80.281-122.432-18.752-3.576-32.965-19.959-32.965-39.581v-128.337c0-22.178 16.663-40.537 38.125-43.217 18.131-40.04 58.129-66.178 102.677-66.178h90.344c17.7 0 34.647 3.988 50.372 11.853 3.952 1.977 5.553 6.782 3.576 10.734-1.976 3.951-6.78 5.554-10.733 3.576-13.482-6.744-28.022-10.163-43.214-10.163h-90.344c-39.787 0-75.044 23.87-89.821 60.812-1.215 3.038-4.157 5.029-7.428 5.029-15.193 0-27.554 12.36-27.554 27.554v128.336c0 10.743 7.104 19.874 16.92 23.082v-72.101c0-39.264 31.943-71.207 71.207-71.207h134.315c39.264-.001 71.207 31.941 71.207 71.202zm-16 0c0-30.438-24.766-55.202-55.207-55.202h-134.315c-30.441 0-55.207 24.766-55.207 55.207v85.449c0 67.472 54.892 122.364 122.364 122.364s122.365-54.893 122.365-122.364zm-17.775 275.294c-16.398.001-31.279-8.403-39.806-22.48-2.289-3.779-7.207-4.986-10.988-2.698-3.779 2.289-4.987 7.209-2.698 10.987 11.452 18.906 31.45 30.192 53.493 30.191 4.418 0 8-3.582 8-8 0-4.419-3.582-8-8.001-8zm-128.131-246.401-32-24c-3.534-2.65-8.55-1.935-11.2 1.601-2.651 3.534-1.935 8.549 1.6 11.2l23.466 17.6-23.466 17.6c-6.143 4.608-2.84 14.403 4.806 14.4 1.67 0 3.354-.521 4.793-1.6l32-24c4.269-3.202 4.26-9.605.001-12.801zm97.6-22.399c-2.651-3.534-7.665-4.252-11.2-1.601l-32 24c-4.268 3.202-4.259 9.605 0 12.801l32 24c3.543 2.657 8.557 1.924 11.2-1.601 2.651-3.534 1.935-8.549-1.6-11.2l-23.466-17.6 23.466-17.6c3.535-2.65 4.251-7.665 1.6-11.199zm154.257-116.624c3.954 3.954 2.727 10.657-2.375 12.953l-86 38.688c-7.4 3.331-14.51-5.289-9.809-11.922l27.268-38.474-26.397-26.397c-3.954-3.954-2.727-10.657 2.375-12.953l86-38.688c7.397-3.331 14.512 5.287 9.809 11.922l-27.268 38.474zm-19.51 3.117-22.975-22.975c-2.757-2.758-3.125-7.102-.87-10.283l14.177-20.003-48.625 21.874 22.975 22.975c2.757 2.758 3.125 7.102.87 10.283l-14.177 20.003zm-377.193-36.165-16.971-31.112c-2.567-4.706-8.926-5.578-12.68-1.826l-13.713 13.713-12.527-22.548c-2.145-3.862-7.015-5.254-10.878-3.108s-5.254 7.017-3.108 10.878l17.678 31.819c2.581 4.648 8.897 5.524 12.65 1.772l13.653-13.653 11.851 21.727c2.114 3.876 6.971 5.309 10.854 3.192 3.878-2.116 5.307-6.975 3.191-10.854zm-34.754 105.187-20.817 11.354c-4.69 2.558-5.596 8.911-1.827 12.68l6.694 6.695-12.019 6.677c-3.862 2.146-5.254 7.016-3.108 10.878 2.149 3.868 7.023 5.251 10.878 3.108l21.29-11.827c4.646-2.58 5.524-8.899 1.772-12.649l-6.634-6.635 11.431-6.234c3.879-2.116 5.308-6.976 3.193-10.854-2.116-3.878-6.975-5.309-10.853-3.193zm257.698 151.958-15.5-12c-2.884-2.232-6.911-2.232-9.795 0l-10.603 8.209-10.603-8.209c-2.884-2.232-6.911-2.232-9.795 0l-10.603 8.209-10.603-8.209c-2.884-2.232-6.911-2.232-9.795 0l-15.5 12c-3.494 2.705-4.133 7.73-1.428 11.224 2.706 3.493 7.73 4.135 11.223 1.429l10.603-8.209 10.603 8.209c2.884 2.232 6.911 2.232 9.795 0l10.603-8.209 10.603 8.209c2.884 2.232 6.911 2.232 9.795 0l10.603-8.209c11.276 8.73 11.993 9.883 15.494 9.883 7.584 0 10.935-9.656 4.903-14.327z"/></svg>