<svg id="Layer_1" enable-background="new 0 0 480 480" height="512" viewBox="0 0 480 480" width="512" xmlns="http://www.w3.org/2000/svg"><path d="m266.823 8h-65.66c-72.17 0-130.67 58.5-130.67 130.67v317.33c0 8.84 7.16 16 16 16h295c8.84 0 16-7.16 16-16v-317.33c0-72.098-58.416-130.67-130.67-130.67z" fill="#ffebd2"/><path d="m203.915 357.415c21.368 13.363 4.504 46.153-18.885 36.767-48.103-19.305-81.706-66.179-81.706-120.734v-53.213c0-4.832 4.308-8.536 9.088-7.774 3.591.575 7.173.961 10.735 1.164 10.987.625 19.575 9.706 19.575 20.71v12.848c0 47.931 25.198 87.722 61.193 110.232z" fill="#fff3e4"/><path d="m397.493 138.67v317.33c0 8.837-7.163 16-16 16h-43.51c-30.11 0-54.55-24.46-54.55-54.74v-23.812l-.6.252c47.26-19.47 80.52-65.98 80.52-120.26v-66.483c0-3.419-2.152-6.486-5.385-7.599-23.617-8.128-43.857-24.511-56.63-46.965-2.966-5.215-10.364-5.503-13.657-.488-13.556 20.65-31.724 36.789-52.645 47.994-5.372 2.877-11.76-1.142-11.736-7.236.017-4.359-.486-8.742-1.524-13.049-1.517-6.292-9.503-8.311-13.771-3.445-24.654 28.112-59.504 41.958-95.969 38.234-4.675-.477-8.712 3.269-8.712 7.968 0 55.408-.323 57.213 1.1 68.047 0 1.729 2.292 14.602 5.2 23.11 11.466 35.641 38.559 65.479 74.22 80.17l-.6-.249v23.809c0 30.28-24.44 54.74-54.55 54.74h-42.2c-8.837 0-16-7.163-16-16v-317.328c-.001-72.167 58.502-130.67 130.669-130.67.001 0 69.029.04 69.03.04 73.136 2.112 127.3 61.68 127.3 130.63z" fill="#42434d"/><path d="m283.433 393.448v20.772c-32.101 13.781-70.357 12.786-100.19 0v-20.769l.678.249c31.808 13.186 67.329 13.251 99.512-.252z" fill="#ffdfba"/><path d="m309.463 47.44c-2.6-.07-67.55-.04-68.9-.04-72.17 0-130.67 58.5-130.67 130.67v34.4c-3.616.603-6.57 3.757-6.57 7.76 0 55.604-1.523 68.329 5.93 92.16.952 3.016.64-10.676.64 159.61h-23.4c-8.837 0-16-7.163-16-16v-317.33c0-72.167 58.503-130.67 130.67-130.67 70.595 0 66.828-.018 68.92.04 15.09 0 35.372 4.763 46.56 9.8 15.26 6.86 9.88 30.01-7.18 29.6z" fill="#4d4e59"/><path d="m179.836 249.843 5.843-5.843-5.843-5.843c-3.125-3.125-3.125-8.189 0-11.314 3.124-3.123 8.189-3.123 11.313 0l5.843 5.843 5.843-5.843c3.124-3.123 8.189-3.123 11.313 0 3.125 3.125 3.125 8.189 0 11.314l-5.841 5.843 5.843 5.843c5.055 5.056 1.406 13.657-5.657 13.657-4.138 0-5.539-2.225-11.5-8.186l-5.843 5.843c-3.125 3.124-8.189 3.123-11.313 0-3.125-3.125-3.125-8.189-.001-11.314zm84.657 13.657c4.138 0 5.539-2.224 11.5-8.186l5.843 5.843c3.126 3.124 8.189 3.123 11.314 0 3.124-3.125 3.124-8.189 0-11.314l-5.843-5.843 5.843-5.843c3.124-3.125 3.124-8.189 0-11.314-3.125-3.123-8.189-3.123-11.314 0l-5.843 5.843-5.843-5.843c-3.125-3.123-8.189-3.123-11.314 0-3.124 3.125-3.124 8.189 0 11.314l5.843 5.843-5.843 5.843c-5.056 5.058-1.405 13.657 5.657 13.657zm-66.4 61.7c-2.651 3.534-1.935 8.549 1.6 11.2 3.533 2.65 8.549 1.934 11.2-1.601.983-1.31 10.049-12.8 25.6-12.8 1.638 0 16.27.359 25.6 12.8 1.572 2.096 3.975 3.201 6.406 3.2 6.528 0 10.365-7.505 6.395-12.8-13.706-18.274-34.393-19.2-38.4-19.2-22.844.001-35.996 15.995-38.401 19.201zm199.9-194.531c-4.418 0-8 3.582-8 8v333.331c0 4.418 3.582 8 8 8s8-3.582 8-8v-333.331c0-4.418-3.582-8-8-8zm-196.332-114.669h65.663c4.418 0 8-3.582 8-8s-3.582-8-8-8h-65.663c-76.462 0-138.668 62.207-138.668 138.669v333.331c0 4.418 3.582 8 8 8s8-3.582 8-8v-333.331c0-67.64 55.029-122.669 122.668-122.669zm163.874 177.353c-27.999-7.954-51.746-28.52-63.04-56.979-2.519-6.348-11.366-6.817-14.53-.745-12.372 23.747-31.614 43.816-56.662 57.21.062-10.689-2.59-21.435-8.066-31.17-2.92-5.19-10.254-5.45-13.575-.596-17.811 26.034-43.786 43.396-75.326 44.105-4.417.1-7.917 3.761-7.818 8.178.098 4.356 3.66 7.82 7.995 7.82 26.883 0 56.338-12.571 79.518-39.568 1.759 7.408 1.715 15.145-.252 22.668-1.668 6.378 4.701 11.944 10.801 9.415 29.834-12.356 53.451-32.501 69.784-57.387 13.795 24.239 35.496 41.727 60.631 50.486v66.653c0 68.597-56.37 123.724-125.247 121.958-65.481-1.698-118.753-57.031-118.753-123.348v-29.053c0-4.418-3.582-8-8-8s-8 3.582-8 8v29.055c0 56.571 33.446 104.702 80 126.536v18.668c0 12.504-4.847 24.25-13.648 33.076-15.59 15.629-35.247 13.665-32.905 13.665-4.418 0-8 3.582-8 8s3.582 8 8 8c34.579 0 62.551-28.039 62.551-62.741v-12.375c89.443 28.794 180-38.97 180-130.641v-70.859c1.328-4.349-1.201-8.822-5.458-10.031zm-27.663 270.647c-16.398.001-31.279-8.403-39.807-22.48-2.289-3.778-7.209-4.985-10.987-2.698-3.779 2.289-4.987 7.209-2.698 10.987 11.452 18.906 31.449 30.192 53.492 30.191 4.419 0 8-3.582 8-8 0-4.419-3.582-8-8-8zm-61.788-375.006c4.382.24 8.186-3.134 8.43-7.545 1.012-18.255 8.696-35.436 21.639-48.378 22.54-22.542 59.219-22.544 81.763 0 17.45 17.45 17.453 45.693-.001 63.147-13.336 13.336-34.917 13.337-48.255-.001-10.042-10.042-10.045-26.297.001-36.341 7.406-7.408 19.401-7.41 26.81 0 3.125 3.123 8.189 3.123 11.314 0 3.124-3.125 3.124-8.189 0-11.314-13.661-13.661-35.775-13.663-49.438 0-16.296 16.298-16.297 42.672 0 58.969 19.586 19.588 51.292 19.593 70.882.001 23.706-23.706 23.707-62.068.001-85.775-28.781-28.779-75.609-28.779-104.391 0-15.73 15.731-25.07 36.616-26.299 58.808-.246 4.411 3.133 8.185 7.544 8.429z"/></svg>