<svg id="Layer_1" enable-background="new 0 0 480 480" height="512" viewBox="0 0 480 480" width="512" xmlns="http://www.w3.org/2000/svg"><path d="m388.412 112.74v123.06c0 18.91-15.33 34.24-34.24 34.24v4.12c0 54.35-33.25 100.92-80.52 120.49-2.156.88-1.729.737.05-.01l.21.5v22.12c0 16.81 7.57 30.81 19.44 40.5 5.86 4.78 2.58 14.24-4.99 14.24h-128.69c-7.55 0-10.85-9.43-5.02-14.22 11.79-9.7 19.07-23.69 19.07-40.52v-22.12l.21-.5c3.58 1.49 7.23 2.81 10.94 3.95-51.41-16.31-91.42-63.97-91.42-124.43v-4.12c-18.77 0-32.92-14.83-32.92-32.31v-128.34c0-19.63 15.92-35.55 35.55-35.55 15.9-39.75 54.42-65.84 97.25-65.84h90.34c57.85 0 104.74 46.89 104.74 104.74z" fill="#ffebd2"/><path d="m388.412 112.737v123.067c0 18.909-15.327 34.236-34.236 34.236 0-14.221 0-49.182 0-81.338 0-34.908-28.298-63.206-63.206-63.206h-134.313c-34.908 0-63.206 28.298-63.206 63.206v81.338c-18.771 0-32.92-14.833-32.92-32.314v-128.333c0-19.633 15.92-35.553 35.553-35.553 15.899-39.746 54.414-65.84 97.246-65.84h90.345c57.846 0 104.737 46.891 104.737 104.737z" fill="#42434d"/><path d="m194.296 358.341c21.433 13.409 4.532 46.293-18.93 36.876-48.239-19.363-81.915-66.371-81.915-121.055v-85.46c0-13.278 4.095-25.602 11.091-35.775 8.766-12.747 28.509-6.426 28.414 9.043-.002.323-.001 85.532-.001 85.855 0 48.077 25.272 87.95 61.341 110.516z" fill="#fff3e4"/><path d="m330.67 19.108c14.236 7.159 9.005 28.481-6.929 28.397-.46-.002-90.447-.001-90.908-.001-40.229 0-76.679 23.024-94.127 58.803-1.99 4.08-5.835 6.848-10.282 7.758-16.2 3.316-28.389 17.652-28.389 34.831v11.693c-4.214 8.467-6.584 18.014-6.584 28.113v58.592c0 14.613-18.922 20.692-27.228 8.669-3.616-5.234-5.691-11.541-5.691-18.236v-128.334c0-19.633 15.92-35.553 35.553-35.553 15.899-39.747 54.414-65.84 97.245-65.84h90.345c16.898 0 32.863 4.001 46.995 11.108z" fill="#4d4e59"/><path d="m273.912 395.14v19.08c-32.101 13.781-70.357 12.786-100.19 0v-19.08l.21-.5c31.07 12.88 67.21 13.47 99.77 0z" fill="#ffdfba"/><path d="m396.415 141.667v96.063c0 4.418-3.582 8-8 8s-8-3.582-8-8v-96.063c0-4.418 3.582-8 8-8s8 3.582 8 8zm-34.237 47.039v86.256c0 90.945-89.994 159.923-180.403 131.024 0 12.464 2.069 35.203-18.319 55.647-11.812 11.844-27.521 18.367-44.23 18.367-4.427 0-8.002-3.588-8.002-8 0-4.418 3.582-8 8-8 25.718 0 46.551-20.866 46.551-46.741v-17.515c-46.481-21.569-79.06-68.197-80.281-122.432-18.752-3.576-32.965-19.959-32.965-39.581v-128.336c0-22.178 16.663-40.537 38.126-43.217 18.133-40.041 58.128-66.178 102.676-66.178h90.344c4.418 0 8 3.582 8 8s-3.582 8-8 8h-90.344c-39.787 0-75.044 23.87-89.82 60.812-1.215 3.038-4.156 5.029-7.428 5.029-15.193 0-27.555 12.36-27.555 27.554v128.335c0 10.743 7.104 19.874 16.921 23.082v-72.101c0-39.264 31.943-71.207 71.207-71.207h134.314c39.264 0 71.208 31.941 71.208 71.202zm-16 0c0-30.438-24.766-55.202-55.207-55.202h-134.315c-30.441 0-55.207 24.766-55.207 55.207v85.449c0 67.472 54.893 122.364 122.364 122.364s122.364-54.893 122.364-122.364v-85.454zm-17.775 275.294c-16.398.001-31.279-8.403-39.807-22.48-2.289-3.778-7.209-4.985-10.987-2.698-3.779 2.289-4.987 7.209-2.698 10.987 11.452 18.906 31.449 30.192 53.492 30.191 4.419 0 8-3.582 8-8 0-4.419-3.582-8-8-8zm-129.431-220.5c7.064 0 10.712-8.601 5.657-13.657l-5.843-5.843 5.843-5.843c3.124-3.125 3.124-8.189 0-11.314-3.125-3.123-8.189-3.123-11.314 0l-5.843 5.843-5.843-5.843c-3.125-3.123-8.189-3.123-11.314 0-3.124 3.125-3.124 8.189 0 11.314l5.843 5.843-5.843 5.843c-5.056 5.058-1.405 13.657 5.657 13.657 4.138 0 5.539-2.224 11.5-8.186 5.968 5.969 7.365 8.186 11.5 8.186zm84.657-36.657c-3.125-3.123-8.189-3.123-11.314 0l-5.843 5.843-5.843-5.843c-3.125-3.123-8.189-3.123-11.314 0-3.124 3.125-3.124 8.189 0 11.314l5.843 5.843-5.843 5.843c-5.056 5.058-1.405 13.657 5.657 13.657 4.138 0 5.539-2.224 11.5-8.186l5.843 5.843c3.126 3.124 8.189 3.123 11.314 0 3.124-3.125 3.124-8.189 0-11.314l-5.843-5.843 5.843-5.843c3.124-3.125 3.124-8.189 0-11.314zm-56.657 79.157c-22.843 0-35.995 15.994-38.4 19.2-2.65 3.534-1.935 8.549 1.601 11.2 3.534 2.649 8.547 1.936 11.2-1.601.982-1.31 10.049-12.8 25.6-12.8 1.638 0 16.27.359 25.6 12.8 2.657 3.542 7.675 4.245 11.2 1.601 3.535-2.651 4.251-7.666 1.601-11.2-13.708-18.274-34.395-19.2-38.402-19.2zm78.344-264.243c-15.73 15.731-25.07 36.616-26.299 58.808-.245 4.411 3.134 8.186 7.545 8.43 4.385.24 8.186-3.134 8.43-7.545 1.012-18.255 8.696-35.436 21.639-48.378 34.823-34.825 94.841-11.659 94.841 31.573 0 20.916-15.086 41.568-37.206 41.568-15.821 0-31.654-11.35-31.654-28.165 0-11.794 8.404-23.724 20.932-23.724 5.064 0 9.825 1.972 13.405 5.553 3.125 3.123 8.189 3.123 11.314 0 3.124-3.125 3.124-8.189 0-11.314-6.603-6.603-15.382-10.238-24.72-10.238-21.674 0-36.932 19.277-36.932 39.724 0 25.756 22.946 44.165 47.654 44.165 31.142 0 53.206-27.859 53.206-57.568.001-57.481-77.307-87.734-122.155-42.889z"/></svg>