<svg id="Layer_1" enable-background="new 0 0 480 480" height="512" viewBox="0 0 480 480" width="512" xmlns="http://www.w3.org/2000/svg"><path d="m472 140v200c0 17.67-14.33 32-32 32h-396c-21.67 0-36-14.33-36-32v-200c0-17.67 14.33-32 32-32h400c17.67 0 32 14.33 32 32z" fill="#d6f4fc"/><path d="m78 372h-34c-21.67 0-36-14.33-36-32v-200c0-17.67 14.33-32 32-32h38z" fill="#bdeffc"/><path d="m472 140v200c0 17.67-14.33 32-32 32h-38c0-10.905 0-253.086 0-264h38c17.67 0 32 14.33 32 32z" fill="#bdeffc"/><path d="m402 160v20h-278c-14.359 0-26 11.641-26 26h-20v-46z" fill="#fff"/><path d="m402 274v20h-278c-14.359 0-26 11.641-26 26h-20v-46z" fill="#fff"/><path d="m78 274h324v46h-324z" fill="#f9f9f9"/><path d="m78 160h324v46h-324z" fill="#f9f9f9"/><path d="m440.436 138h-38.436v-30c41.034 0 38.396-.013 39.409.03 19.344.839 18.389 29.97-.973 29.97z" fill="#d6f4fc"/><path d="m78 108v30h-8c-17.67 0-32 14.33-32 32 0 .899-.013 114.084.008 170.455.007 19.33-29.084 20.346-29.973 1.037-.054-1.16-.035-202.494-.035-201.492 0-17.673 14.327-32 32-32z" fill="#d6f4fc"/><path d="m402 160v20h-304v26h-20v-46z" fill="#fff"/><path d="m78 108h324v29.88h-324z" fill="#f1fafc"/><path d="m480 140v200c0 22.056-17.944 40-40 40-4.418 0-8-3.582-8-8s3.582-8 8-8c13.233 0 24-10.767 24-24v-200c0-13.233-10.767-24-24-24h-324c-4.418 0-8-3.582-8-8s3.582-8 8-8h324c22.056 0 40 17.944 40 40zm-70 2v230c0 4.418-3.582 8-8 8h-358c-25.084 0-44-17.196-44-40v-200c0-22.056 17.944-40 40-40h38c4.418 0 8 3.582 8 8v44h308v-10c0-4.418 3.582-8 8-8s8 3.582 8 8zm-324 222h308v-36h-278c-4.418 0-8-3.582-8-8s3.582-8 8-8h278v-30h-308zm0-196v30h280c4.418 0 8 3.582 8 8s-3.582 8-8 8h-280v52h308v-98zm-42 196h26v-248h-30c-13.234 0-24 10.767-24 24v200c0 13.906 11.776 24 28 24zm196-308c4.418 0 8-3.582 8-8v-28c0-4.418-3.582-8-8-8s-8 3.582-8 8v28c0 4.418 3.582 8 8 8zm91.907 3.407 12.242-12.242c3.125-3.125 3.125-8.189 0-11.314-3.124-3.123-8.189-3.123-11.313 0l-12.242 12.242c-3.125 3.125-3.125 8.189 0 11.314 3.124 3.124 8.188 3.124 11.313 0zm-183.814 0c1.562 1.562 3.609 2.343 5.657 2.343 7.063 0 10.712-8.601 5.657-13.657l-12.242-12.242c-3.124-3.123-8.189-3.123-11.313 0-3.125 3.125-3.125 8.189 0 11.314zm91.907 364.593c-4.418 0-8 3.582-8 8v28c0 4.418 3.582 8 8 8s8-3.582 8-8v-28c0-4.418-3.582-8-8-8zm91.907-3.407c-3.124-3.123-8.189-3.123-11.313 0-3.125 3.125-3.125 8.189 0 11.314l12.242 12.242c3.125 3.124 8.189 3.123 11.313 0 3.125-3.125 3.125-8.189 0-11.314zm-183.814 0-12.242 12.242c-5.055 5.056-1.406 13.657 5.657 13.657 2.047 0 4.095-.781 5.657-2.343l12.242-12.242c3.125-3.125 3.125-8.189 0-11.314-3.124-3.123-8.19-3.123-11.314 0z"/></svg>