<svg id="Layer_1" enable-background="new 0 0 480 480" height="512" viewBox="0 0 480 480" width="512" xmlns="http://www.w3.org/2000/svg"><path d="m359 363c20.43 0 37 16.57 37 37s-16.57 37-37 37c-28.601 0-46.239-31.097-32.01-55.56 6.41-11.03 18.35-18.44 32.01-18.44z" fill="#2c2c33"/><circle cx="120" cy="400" fill="#2c2c33" r="37"/><path d="m472 198v40c0 13.25-10.75 24-24 24-10.95 0-404.773 0-416 0-13.25 0-24-10.75-24-24 0-22.496 0-49.448 0-72h432c17.67 0 32 14.33 32 32z" fill="#d6f4fc"/><path d="m443.195 206h-363.258c-17.638 0-31.937 14.299-31.937 31.937 0 25.172-37.543 27.395-39.894 2.333-.152-1.62-.106 3.641-.106-74.27h432c32.074 0 28.335 40 3.195 40z" fill="#f1fafc"/><path d="m130.887 384.072c-12.957 3.389-23.446 13.834-26.837 26.802-2.521 9.642-16.017 10.275-19.164.819-9.536-28.65 17.78-56.411 46.736-46.826 9.523 3.153 8.97 16.667-.735 19.205z" fill="#42434d"/><path d="m369.887 384.072c-12.957 3.389-23.446 13.834-26.837 26.802-2.521 9.642-16.017 10.275-19.164.819-9.586-28.8 17.935-56.36 46.736-46.826 9.523 3.153 8.97 16.667-.735 19.205z" fill="#42434d"/><path d="m480 101v137c0 17.645-14.355 32-32 32h-86.846c-84.344 48.98-78.521 46.126-81.574 46.126-8.132 0-11.085-10.819-4.025-14.919l53.738-31.207h-141.293c-4.418 0-8-3.582-8-8s3.582-8 8-8h260c8.822 0 16-7.178 16-16v-40c0-13.233-10.767-24-24-24h-387.5c-4.418 0-8-3.582-8-8s3.582-8 8-8h387.5c8.998 0 17.31 2.988 24 8.022v-65.022c0-4.418 3.582-8 8-8s8 3.582 8 8zm-76 299c0 24.813-20.187 45-45 45-22.082 0-40.487-15.992-44.274-37h-118.726c-4.418 0-8-3.582-8-8s3.582-8 8-8h118.726c.452-2.507 1.102-4.946 1.953-7.291l-76.586-44.407-77.558 45.039c10.102 29.225-11.763 59.659-42.535 59.659-24.813 0-45-20.187-45-45s20.187-45 45-45c13.954 0 26.445 6.385 34.705 16.385l69.445-40.327-105.302-61.058h-86.848c-17.645 0-32-14.355-32-32 0-5.037 0-189.572 0-195 0-4.418 3.582-8 8-8s8 3.582 8 8v195c0 8.822 7.178 16 16 16h89c3.202 0-9.417-6.708 203.731 116.882 8.26-9.707 20.554-15.882 34.269-15.882 24.813 0 45 20.187 45 45zm-255 0c0-15.99-13.009-29-29-29s-29 13.01-29 29 13.009 29 29 29 29-13.01 29-29zm239 0c0-15.99-13.01-29-29-29s-29 13.01-29 29 13.01 29 29 29 29-13.01 29-29z"/></svg>