<svg id="Layer_1" enable-background="new 0 0 480 480" height="512" viewBox="0 0 480 480" width="512" xmlns="http://www.w3.org/2000/svg"><path d="m472 233.04v118.46c0 17.67-14.33 32-32 32h-400c-17.67 0-32-14.33-32-32v-230c0-17.67 14.33-32 32-32h204v-19c0-21.347 25.888-32.017 40.97-16.97 4.34 4.35 7.03 10.35 7.03 16.97v19h53c32.44 0 62.69 16.38 80.41 43.56l31 47.54c10.17 15.59 15.59 33.82 15.59 52.44z" fill="#fe4f60"/><path d="m292 89.5h-48c0-7.15 0-11.764 0-19 0-13.25 10.75-24 24-24 13.252 0 24 10.76 24 24z" fill="#d6f4fc"/><circle cx="363" cy="383.5" fill="#42434d" r="50"/><circle cx="117" cy="383.5" fill="#42434d" r="50"/><path d="m219 202.6v20.8c0 4.418-3.582 8-8 8h-24.6c-4.418 0-8 3.581-8 8v24.6c0 4.418-3.582 8-8 8h-20.8c-4.418 0-8-3.582-8-8v-24.6c0-4.419-3.582-8-8-8h-24.6c-4.418 0-8-3.582-8-8v-20.8c0-4.418 3.582-8 8-8h24.6c4.418 0 8-3.581 8-8v-24.6c0-4.418 3.582-8 8-8h20.8c4.418 0 8 3.582 8 8v24.6c0 4.419 3.582 8 8 8h24.6c4.418 0 8 3.582 8 8z" fill="#d6f4fc"/><path d="m435.43 148.43c-12.48-5.79-26.25-8.93-40.43-8.93h-305c-17.673 0-32 14.327-32 32v180.107c0 32.544-50 34.259-50-.107v-230c0-17.673 14.327-32 32-32h305c32.44 0 62.69 16.38 80.41 43.56z" fill="#ff6d7a"/><path d="m472 236.5h-131c-17.67 0-32-14.33-32-32v-115h36c32.44 0 62.69 16.38 80.41 43.56l31 47.54c11.798 18.085 15.59 35.889 15.59 55.9z" fill="#d6f4fc"/><g fill="#f1fafc"><path d="m348.894 139.325c-11.301.084-24.44.175-39.894.175v-50c39.341 0 37.72-.041 41.154.119 32.057 1.497 30.83 49.467-1.26 49.706z"/><path d="m272.777 65.293c-7.474 3.974-12.777 11.811-12.777 21.207v3h-16v-18.454c0-13.309 10.599-24.497 23.909-24.546 11.222-.042 13.954 13.961 4.868 18.793z"/><path d="m171.808 213.753c-4.941 5.443-10.574 10.207-16.783 14.194-9.69 6.223-19.612 3.453-21.425 3.453h-24.6c-4.418 0-8-3.582-8-8v-20.8c0-4.418 3.582-8 8-8h24.6c4.418 0 8-3.582 8-8v-24.6c0-4.418 3.582-8 8-8h20.8c4.418 0 8 3.582 8 8 0 26.789-.053 25.033.128 26.035 1.674 9.238-.41 18.767-6.72 25.718z"/></g><path d="m134.929 353.311c-25.451 1.1-46.993 22.741-48.092 48.167-.358 8.285-11.69 10.611-15.191 3.093-2.981-6.402-4.646-13.542-4.646-21.069-.001-36.886 38.274-60.579 71.017-45.38 7.521 3.49 5.196 14.831-3.088 15.189z" fill="#4d4e59"/><path d="m380.929 353.311c-25.451 1.1-46.993 22.741-48.092 48.167-.358 8.285-11.69 10.611-15.191 3.093-2.981-6.403-4.646-13.542-4.646-21.069-.001-36.886 38.274-60.579 71.017-45.38 7.521 3.49 5.196 14.831-3.088 15.189z" fill="#4d4e59"/><path d="m288.5 383.5c0 4.418-3.582 8-8 8h-84c-4.418 0-8-3.582-8-8s3.582-8 8-8h84c4.418 0 8 3.582 8 8zm191.5-150.462v118.462c0 22.056-17.944 40-40 40-4.418 0-8-3.582-8-8s3.582-8 8-8c13.233 0 24-10.767 24-24v-107h-123c-22.056 0-40-17.944-40-40v-74c0-4.418 3.582-8 8-8s8 3.582 8 8v74c0 13.233 10.767 24 24 24h122.87c-.795-15.505-5.64-30.471-14.16-43.533l-31.004-47.538c-16.305-25.002-43.86-39.929-73.709-39.929h-100.997c-4.447 0-8.134-3.658-7.987-8.25-.02-.616-.013-18.134-.013-18.75 0-17.645 14.355-32 32-32s32 14.355 32 32v11h44.997c35.276 0 67.841 17.641 87.111 47.188l31.003 47.538c11.049 16.94 16.889 36.585 16.889 56.812zm-228-162.538v11h32v-11c0-8.822-7.178-16-16-16s-16 7.178-16 16zm-212 305c-13.233 0-24-10.767-24-24v-230c0-13.233 10.767-24 24-24h164c4.418 0 8-3.582 8-8s-3.582-8-8-8h-164c-22.056 0-40 17.944-40 40v230c0 22.056 17.944 40 40 40 4.418 0 8-3.582 8-8s-3.582-8-8-8zm135 8c0 31.981-26.019 58-58 58s-58-26.019-58-58 26.019-58 58-58 58 26.019 58 58zm-16 0c0-23.159-18.841-42-42-42s-42 18.841-42 42 18.841 42 42 42 42-18.841 42-42zm262 0c0 31.981-26.019 58-58 58s-58-26.019-58-58 26.019-58 58-58 58 26.019 58 58zm-16 0c0-23.159-18.841-42-42-42s-42 18.841-42 42 18.841 42 42 42 42-18.841 42-42zm-226.599-160.099c-4.418 0-8 3.582-8 8v32.599h-20.803v-32.599c0-4.418-3.582-8-8-8h-32.598v-20.803h32.599c4.418 0 8-3.582 8-8v-32.598h20.803v32.599c0 4.418 3.582 8 8 8h32.598v28.803c0 4.418 3.582 8 8 8s8-3.582 8-8v-36.803c0-4.418-3.582-8-8-8h-32.599v-32.599c0-4.418-3.582-8-8-8h-36.803c-4.418 0-8 3.582-8 8v32.599h-32.598c-4.418 0-8 3.582-8 8v36.803c0 4.418 3.582 8 8 8h32.599v32.598c0 4.418 3.582 8 8 8h36.803c4.418 0 8-3.582 8-8v-40.599c-.001-4.418-3.583-8-8.001-8z"/></svg>