<svg id="Layer_1" enable-background="new 0 0 479.976 479.976" height="512" viewBox="0 0 479.976 479.976" width="512" xmlns="http://www.w3.org/2000/svg"><path d="m365.482 401.833c22.453 27.952 2.761 70.17-33.62 70.17-36 0-56.336-41.907-33.62-70.17l21.151-26.304c6.405-7.965 18.533-7.965 24.938 0z" fill="#bdeffc"/><path d="m344.332 375.533c3.093 3.85 3.062 9.344-.088 13.147-3.208 3.874-8.766 10.921-19.672 24.483-7.859 9.778-10.68 21.789-9.085 33.086 1.529 10.828-12.495 16.488-18.782 7.541-10.369-14.755-11.538-35.69 1.537-51.958l21.15-26.3c6.41-7.969 18.53-7.969 24.94.001z" fill="#d6f4fc"/><path d="m392.082 274.073c-1 32.69-28.5 58.35-61.2 58.35h-33.56c-30.602 34.421-84.234 34.335-114.7 0h-33.58c-32.7 0-60.2-25.66-61.2-58.35-.8-26.36 12.94-51.05 46.41-59.38l.21.06c16.02-4.09 27.96-17.47 30.08-33.85.046-.34 14.548-117.799 14.59-118.14 3.79-30.7 29.48-54.55 60.41-54.76 31.06-.21 57.32 22.88 61.12 53.66l14.69 119c2.03 16.49 14.01 29.98 30.11 34.09 30.932 7.893 47.443 30.96 46.62 59.32z" fill="#ffebd2"/><path d="m244.288 8.154c24.839 1.746 31.019 35.062 8.769 46.24-17.884 8.985-31.245 26.665-33.925 48.369-.042.341-14.544 117.8-14.59 118.14-2.12 16.38-14.06 29.76-30.08 33.85l-.21-.06c-20.521 5.107-33.319 16.455-40.183 29.801-11.512 22.382-45.101 15.509-46.198-9.635-1.245-28.525 14.395-52.205 46.381-60.165l.21.06c15.225-3.887 27.703-16.441 30.11-34.07l14.56-117.92c3.972-32.174 32.034-56.938 65.156-54.61z" fill="#fff3e4"/><path d="m371.565 327.641c-1.411 1.013-3.042 1.5-4.656 1.5-7.73 0-10.987-9.968-4.67-14.501 32.789-23.524 30.785-79.501-18.758-92.139-19.461-4.964-33.62-21-36.071-40.854l-14.692-119.003c-3.291-26.65-25.94-46.644-52.758-46.644-26.826 0-49.543 20.634-52.89 47.738l-14.586 118.149c-.541 4.385-4.538 7.499-8.92 6.959-4.385-.541-7.501-4.535-6.959-8.92l14.586-118.149c4.319-34.987 33.683-61.545 68.301-61.776 34.784-.272 64.772 25.594 69.105 60.681l14.691 119.004c1.639 13.267 11.117 23.987 24.147 27.311 63.12 16.102 67.539 89.5 24.13 120.644zm-55.058-9.83c1.896-3.991.198-8.763-3.792-10.659-3.992-1.897-8.765-.198-10.659 3.792-11.332 23.848-35.706 39.258-62.094 39.258-26.389 0-50.763-15.41-62.095-39.258-1.896-3.99-6.667-5.688-10.659-3.792-3.99 1.896-5.688 6.669-3.792 10.659 1.079 2.271 2.265 4.471 3.529 6.613h-17.9c-28.486 0-52.355-22.695-53.207-50.591-.796-26.067 13.911-44.794 40.349-51.381 4.288-1.068 6.897-5.409 5.829-9.697-1.068-4.287-5.413-6.898-9.696-5.829-33.888 8.443-53.504 33.637-52.474 67.395 1.132 37.043 32.156 66.102 69.199 66.102h30.136c41.815 42.91 112.33 29.99 137.326-22.612zm21.588 37.196c-2.769-3.444-7.804-3.99-11.248-1.223-3.443 2.768-3.99 7.804-1.223 11.248l33.618 41.819c11.261 14.006 10.169 34.151-2.539 46.859-13.699 13.699-35.989 13.7-49.688 0-12.708-12.708-13.799-32.853-2.539-46.859 2.768-3.444 2.221-8.479-1.223-11.248-3.445-2.769-8.479-2.221-11.248 1.223-27.023 33.616-2.765 83.155 39.854 83.151 42.617-.003 66.879-49.533 39.854-83.151z"/></svg>