<svg id="Layer_1" enable-background="new 0 0 480.102 480.102" height="512" viewBox="0 0 480.102 480.102" width="512" xmlns="http://www.w3.org/2000/svg"><circle cx="154.768" cy="298.304" fill="#ffa4b8" r="146.717"/><path d="m389.091 444.271c-33.36 0-64.8-20.26-77.47-53.25-19.573-50.993-70.969-184.879-93.85-244.479-20.861-54.338 19.4-112.71 77.43-112.71 33.36 0 64.8 20.26 77.47 53.25 2.502 6.518 91.335 237.928 93.85 244.48 20.861 54.337-19.401 112.709-77.43 112.709z" fill="#d6f4fc"/><path d="m165.277 199.318c-60.046 22.095-100.352 84.443-97.146 148.249 1.365 27.161-35.789 36.074-47.029 11.31-44.516-98.071 29.132-208.926 135.991-207.269 27.298.425 33.806 38.282 8.184 47.71z" fill="#ffb1bf"/><path d="m354.718 377.514c10.391 27.147-29.72 43.985-41.486 17.405-1.283-2.898 5.038 13.407-95.46-248.378-20.86-54.34 19.4-112.71 77.43-112.71 24.63 0 48.21 11.04 63.97 30.1-56.907-3.928-103.511 55.014-81.4 112.61 66.218 172.445 56.194 146.76 76.946 200.973z" fill="#f1fafc"/><path d="m419.771 210.771c-.107.046-154.792 59.418-154.9 59.46-1.829-4.764-44.849-116.826-47.1-122.69-20.862-54.34 19.402-112.71 77.43-112.71 33.36 0 64.8 20.26 77.47 53.25 2.656 6.918 44.452 115.794 47.1 122.69z" fill="#fe4f60"/><path d="m277.771 176.541c7.53 19.609 18.14 47.25 29.69 77.34l-42.59 16.35c-1.915-4.988-45.053-117.358-47.1-122.689-16.569-43.159 5.354-91.559 48.731-107.56 29.269-10.797 52.506 25.846 30.396 47.855-22.081 21.977-31.694 55.968-19.127 88.704z" fill="#ff6d7a"/><path d="m21.59 219.613c33.983-57.314 100.574-86.384 165.648-72.444 4.32.925 7.072 5.178 6.146 9.498-.925 4.32-5.176 7.073-9.498 6.146-56.724-12.151-113.371 12.478-144.224 58.178l211.209 124.044c7.028 4.127 4.039 14.899-4.06 14.899-3.222 0 11.024 7.747-221.812-128.998-4.99-2.92-5.427-7.921-3.409-11.323zm252.043 164.935c-3.429-2.785-8.468-2.264-11.253 1.167-26.479 32.606-65.729 51.308-107.684 51.308-86.871 0-153.02-79.576-136.011-165.677.855-4.334-1.964-8.542-6.299-9.398-4.327-.86-8.542 1.963-9.398 6.298-18.971 96.032 54.838 184.777 151.708 184.777 46.796 0 90.572-20.856 120.104-57.222 2.785-3.429 2.263-8.467-1.167-11.253zm200.356-54.856-46.749-121.784c-1.634-4.255-6.412-6.17-10.365-4.589 0 0-113.974 43.748-113.996 43.757-4.125 1.583-6.185 6.211-4.602 10.336 1.579 4.112 6.194 6.188 10.336 4.602l106.555-40.902 43.882 114.315c14.847 38.676-4.436 81.997-43.119 96.845-38.584 14.816-82.031-4.529-96.845-43.118l-93.846-244.476c-14.848-38.68 4.436-81.996 43.119-96.846 38.585-14.812 82.033 4.53 96.845 43.119l31.719 82.631c1.584 4.125 6.207 6.181 10.336 4.602 4.125-1.583 6.185-6.211 4.602-10.336l-31.719-82.631c-17.973-46.822-70.688-70.298-117.518-52.322-46.824 17.975-70.296 70.692-52.321 117.518l93.846 244.476c13.874 36.142 48.438 58.37 85.021 58.366 63.668-.007 107.657-64.069 84.819-123.563z"/></svg>