<svg id="Layer_1" enable-background="new 0 0 480 480" height="512" viewBox="0 0 480 480" width="512" xmlns="http://www.w3.org/2000/svg"><path d="m338.5 69.25c-13.694 0-25 11.087-25 25v-34.953c0-17.029-16.631-29.581-33-23.527-9.233 3.39-16 12.35-16 22.98v-26.631c0-14.037-11.844-24.883-25-24.109-13.169.234-24 11.043-24 24.49v26.25c0-13.719-11.268-24.766-24.995-24.495-13.429.265-24.005 11.618-24.005 25.049v133.196c0-6.76-2.74-12.89-7.18-17.32-15.37-15.405-41.82-4.45-41.82 17.874v106.285c0 12.954 6.188 25.558 17.25 33.41 10.82 7.68 17.25 20.13 17.25 33.41v81.841c0 13.255 10.745 24 24 24h141.5c13.255 0 24-10.745 24-24v-96.18c0-9.377 3.612-18.732 10.561-25.792 6.725-6.833 10.439-16.071 10.439-25.658v-207.12c0-13.25-10.744-24-24-24z" fill="#ffebd2"/><path d="m176 472c-13.255 0-24-10.745-24-24v-81.84c0-13.28-6.43-25.73-17.25-33.41-10.634-7.548-17.25-19.929-17.25-33.41v-106.29c0-20.441 27.712-18.278 27.336-.541-.009.422-.006 106.407-.006 106.831 0 12.954 6.188 25.558 17.25 33.41 10.82 7.68 17.25 20.13 17.25 33.41v81.84c0 4.563 1.206 8.593 3.353 11.996 3.288 5.214-.519 12.004-6.683 12.004z" fill="#fff3e4"/><path d="m182.63 194.38c0-8.99-4.845-16.859-12.098-21.128-2.488-1.464-4.032-4.116-4.032-7.002 0-116.13-.566-109.84 1.474-115.54 3.397-9.492 17.815-5.408 15.39 4.377-1.063 4.288-.745-5.857-.734 139.293z" fill="#fff3e4"/><path d="m223.787 14.154c5.805-5.102 14.53 1.713 10.824 8.496-1.892 3.462-2.981 7.45-2.981 11.73v26.25c0-10.674-6.795-19.625-16.13-23.03 0-5.619-.932-15.342 8.287-23.446z" fill="#fff3e4"/><g fill="#ffdfba"><path d="m231.5 41.819v152.159c0 4.262-3.218 7.982-7.471 8.255-4.66.299-8.529-3.388-8.529-7.983 0-160.529-.018-152.062.035-153.062.539-10.233 15.965-9.616 15.965.631z"/><path d="m173.968 250.363c-4.252-.275-7.468-3.996-7.468-8.257v-70.606c0-2.209 1.791-4 4-4h4c4.418 0 8 3.582 8 8v66.88c0 4.594-3.873 8.284-8.532 7.983z"/><path d="m280.5 47.257v148.78c0 1.466-.643 2.866-1.778 3.793-6.699 5.469-14.222.827-14.222-5.58v-135.5c0-5.826 2.032-11.146 5.385-15.324 3.514-4.379 10.615-1.782 10.615 3.831z"/><path d="m329.5 82.59v102.638c0 4.262-3.218 7.982-7.471 8.255-4.66.299-8.529-3.388-8.529-7.983v-91.25c0-5.836 1.997-11.202 5.346-15.453 3.492-4.434 10.654-1.851 10.654 3.793z"/></g><path d="m362.5 264.67v35.7c0 9.62-3.77 18.85-10.5 25.72-6.699 6.839-10.5 16.07-10.5 25.73v77.18c-11.47 9-26.15 11.41-38 6-14.92-6.81-20.65-23.83-20-36 1.09-20.52 18.99-22.79 22-44 2.96-20.85-13.18-26.79-10-49 3.27-22.8 22.97-35.37 24-36 19.46-11.99 39.72-6.31 43-5.33z" fill="#c79a83"/><path d="m222.5 382c5.55 8.5 4.37 19.62 2 26-6.92 18.62-36.25 29.79-72.5 25v-66.84c0-13.28-6.43-25.73-17.25-33.41-2.37-1.68-4.52-3.59-6.45-5.68l2.2-1.07c12.49-17.603 32.26-26.47 46-13 14.3 14.06-.99 36.25 11 51 9.86 12.13 26.17 4.47 35 18z" fill="#e0b7a3"/><path d="m224.5 408c-5.07 13.63-22.15 23.27-45.17 25.58v-67.42c0-13.28-6.43-25.73-17.25-33.41-7.74-5.49-13.09-13.31-15.61-21.95 11.611-6.768 22.568-5.116 30.03 2.2 14.3 14.06-.99 36.25 11 51 9.86 12.13 26.17 4.47 35 18 5.55 8.5 4.37 19.62 2 26z" fill="#c79a83"/><path d="m272.5 32.5v161.75c0 4.418-3.582 8-8 8s-8-3.582-8-8v-161.75c0-9.098-7.402-16.5-16.5-16.5s-16.5 7.402-16.5 16.5v161.75c0 4.418-3.582 8-8 8s-8-3.582-8-8v-135.5c0-9.098-7.402-16.5-16.5-16.5s-16.5 7.402-16.5 16.5v183.625c0 4.418-3.582 8-8 8s-8-3.582-8-8c0-5.024 0-45.033 0-49.875 0-9.098-7.402-16.5-16.5-16.5s-16.5 7.402-16.5 16.5v106.843c0 5.431 1.353 10.699 3.823 15.381 18.406-20.217 39.951-20.047 52.786-7.428 17.218 16.93 2.641 40.638 11.599 51.658 6.987 8.594 24.682 2.102 35.493 18.676 10.553 16.178 9.074 51.967-37.532 62.12-4.33.94-8.581-1.807-9.52-6.114-.94-4.317 1.797-8.579 6.114-9.52 14.794-3.223 25.537-10.289 28.738-18.902 1.938-5.216 2.389-13.338-1.202-18.843-6.081-9.322-22.707-2.809-34.507-17.324-14.262-17.544.101-40.015-10.401-50.342-9.294-9.136-22.31-1.973-30.836 8.032 12.497 9.205 19.945 23.868 19.945 39.42v105.843c0 4.418-3.582 8-8 8s-8-3.582-8-8v-105.843c0-10.662-5.189-20.712-13.882-26.885-12.911-9.168-20.618-24.095-20.618-39.93v-106.842c0-25.085 27.408-40.764 49-27.984v-105.766c0-25.127 27.474-40.772 49.045-27.958.891-17.129 15.107-30.792 32.455-30.792 17.92 0 32.5 14.58 32.5 32.5zm16.5 9.75c9.098 0 16.5 7.402 16.5 16.5v126.75c0 4.418 3.582 8 8 8s8-3.582 8-8v-126.75c0-17.92-14.58-32.5-32.5-32.5-4.418 0-8 3.582-8 8s3.582 8 8 8zm52.5 342.75c-4.418 0-8 3.582-8 8v31.842c-8.551 5.349-18.686 6.527-26.679 2.88-12.059-5.503-15.776-19.938-15.333-28.298.874-16.476 18.573-19.626 21.932-43.3 3.338-23.535-12.532-29.908-9.99-49.072.481-3.625 3.685-22.103 19.579-29.863 3.971-1.938 5.618-6.729 3.679-10.699-1.938-3.971-6.73-5.619-10.699-3.679-23.235 11.345-27.751 37.091-28.421 42.137-3.294 24.83 12.425 31.902 10.01 48.928-2.538 17.893-20.807 20.918-22.068 44.7-1.687 31.785 26.465 56.411 57.989 44.13v29.294c0 4.418 3.582 8 8 8s8-3.582 8-8v-79c.001-4.418-3.581-8-7.999-8zm-3-323.75c-4.418 0-8 3.582-8 8s3.582 8 8 8c8.822 0 16 7.178 16 16v207.12c0 7.57-2.917 14.718-8.215 20.125-7.979 8.145-12.785 19.102-12.785 31.505 0 4.418 3.582 8 8 8 4.22 0 8-3.317 8-8.183 0-7.57 2.917-14.718 8.215-20.125 8.245-8.416 12.785-19.54 12.785-31.322v-207.12c0-17.645-14.355-32-32-32z"/></svg>