<svg id="Layer_1" enable-background="new 0 0 480 480" height="512" viewBox="0 0 480 480" width="512" xmlns="http://www.w3.org/2000/svg"><path d="m403.94 112.74v123.06c0 18.91-15.33 34.24-34.24 34.24v4.12c0 54.35-33.25 100.92-80.52 120.49-2.156.88-1.729.737.05-.01l.21.5v22.12c0 16.81 7.57 30.81 19.44 40.5 5.86 4.78 2.58 14.24-4.99 14.24h-128.69c-7.55 0-10.85-9.43-5.02-14.22 11.79-9.7 19.07-23.69 19.07-40.52v-22.12l.21-.5c3.58 1.49 7.23 2.81 10.94 3.95-51.41-16.31-91.42-63.97-91.42-124.43v-4.12c-18.77 0-32.92-14.83-32.92-32.31v-128.34c0-19.63 15.92-35.55 35.55-35.55 15.9-39.75 54.42-65.84 97.25-65.84h90.34c57.85 0 104.74 46.89 104.74 104.74z" fill="#ffebd2"/><path d="m403.94 112.737v123.067c0 18.909-15.327 34.236-34.236 34.236 0-14.221 0-49.182 0-81.338 0-34.908-28.298-63.206-63.206-63.206h-134.313c-34.908 0-63.206 28.298-63.206 63.206v81.338c-18.771 0-32.92-14.833-32.92-32.314v-128.333c0-19.633 15.92-35.553 35.553-35.553 15.899-39.746 54.414-65.84 97.246-65.84h90.345c57.846 0 104.737 46.891 104.737 104.737z" fill="#42434d"/><path d="m209.825 358.341c21.433 13.409 4.532 46.293-18.93 36.876-48.239-19.363-81.915-66.371-81.915-121.055v-85.46c0-13.278 4.095-25.602 11.091-35.775 8.766-12.747 28.509-6.426 28.414 9.043-.002.323-.001 85.532-.001 85.855-.001 48.077 25.271 87.95 61.341 110.516z" fill="#fff3e4"/><path d="m346.199 19.108c14.236 7.159 9.005 28.481-6.929 28.397-.46-.002-90.447-.001-90.908-.001-40.229 0-76.679 23.024-94.127 58.803-1.99 4.08-5.835 6.848-10.282 7.758-16.2 3.316-28.389 17.652-28.389 34.831v11.693c-4.214 8.467-6.584 18.014-6.584 28.113v58.592c0 14.613-18.922 20.692-27.228 8.669-3.616-5.234-5.691-11.541-5.691-18.236v-128.334c0-19.633 15.92-35.553 35.553-35.553 15.898-39.747 54.413-65.84 97.244-65.84h90.345c16.898 0 32.863 4.001 46.996 11.108z" fill="#4d4e59"/><path d="m289.44 395.14v19.08c-32.101 13.781-70.357 12.786-100.19 0v-19.08l.21-.5c31.07 12.88 67.21 13.47 99.77 0z" fill="#ffdfba"/><path d="m299.203 0h-90.344c-44.537 0-84.54 26.127-102.677 66.177-21.463 2.681-38.125 21.04-38.125 43.218v128.336c0 19.622 14.213 36.005 32.965 39.581 1.221 54.234 33.799 100.863 80.281 122.432v17.515c0 12.504-4.847 24.25-13.648 33.076-15.588 15.629-35.238 13.665-32.903 13.665-4.418 0-8 3.582-8 8s3.582 8 8 8c34.579 0 62.551-28.039 62.551-62.741v-11.273c90.428 28.906 180.403-40.098 180.403-131.024v-86.256c0-39.261-31.943-71.202-71.207-71.202h-134.315c-39.263 0-71.207 31.943-71.207 71.207v72.102c-9.816-3.208-16.92-12.339-16.92-23.082v-128.336c0-15.193 12.36-27.554 27.554-27.554 3.271 0 6.213-1.992 7.428-5.029 14.776-36.942 50.033-60.812 89.82-60.812h90.344c53.343 0 96.74 43.397 96.74 96.74v124.991c0 4.418 3.582 8 8 8s8-3.582 8-8v-124.991c0-62.165-50.575-112.74-112.74-112.74zm-182.226 188.711c0-30.441 24.766-55.207 55.207-55.207h134.315c30.441 0 55.207 24.764 55.207 55.202v85.455c0 67.472-54.893 122.364-122.365 122.364s-122.364-54.892-122.364-122.364zm234.954 283.289c0 4.418-3.581 8-8 8-22.043 0-42.04-11.286-53.492-30.191-2.289-3.779-1.081-8.698 2.698-10.988 3.778-2.289 8.698-1.081 10.987 2.698 8.528 14.077 23.409 22.481 39.807 22.481 4.418 0 8 3.582 8 8zm-157.379-240v-16c0-4.418 3.582-8 8-8s8 3.582 8 8v16c0 4.418-3.582 8-8 8s-8-3.582-8-8zm80 0v-16c0-4.418 3.582-8 8-8s8 3.582 8 8v16c0 4.418-3.582 8-8 8s-8-3.582-8-8zm41.938 26.61c6.671-2.73 13.144 3.989 10.449 10.45-2.708 6.525-12.013 6.61-14.77 0-1.719-4.124.29-8.771 4.321-10.45zm-177.32-15.55c-1.7-4.075.238-8.748 4.32-10.45 7.431-3.035 14.029 5.424 9.71 11.83-3.474 5.269-11.555 4.57-14.03-1.38zm30.32-75.45c4.509-1.841 9.792.639 10.91 5.83.854 4.35-1.983 8.557-6.28 9.4-3.392.717-7.367-.975-8.95-4.78-1.716-4.112.281-8.766 4.32-10.45zm86-5c6.666-2.727 13.147 3.982 10.449 10.45-2.708 6.525-12.013 6.61-14.77 0-1.719-4.124.29-8.771 4.321-10.45zm-59 186c3.614-1.476 7.658-.162 9.71 2.95 2.472 3.662 1.434 8.688-2.21 11.09-4.067 2.745-9.837 1.176-11.82-3.59-1.665-3.805.074-8.679 4.32-10.45zm-42.59-52.27c3.384-3.481 9.478-3.059 12.3 1.22 2.477 3.669 1.426 8.693-2.21 11.09-3.152 2.128-7.417 1.686-10.09-.99-3.122-3.118-3.126-8.194 0-11.32zm143.59 38.27c4.515-1.847 9.8.654 10.909 5.83.853 4.322-1.957 8.551-6.279 9.4-3.468.732-7.416-1.059-8.96-4.78-1.667-3.996.178-8.72 4.33-10.45zm-54.938-48.61c4.008 0 24.694.926 38.4 19.2 2.65 3.535 1.935 8.549-1.601 11.2-3.532 2.65-8.548 1.935-11.2-1.6-9.33-12.44-23.962-12.8-25.6-12.8-15.55 0-24.618 11.49-25.6 12.8-1.572 2.095-3.974 3.2-6.406 3.2-6.513 0-10.372-7.496-6.394-12.801 2.406-3.205 15.56-19.199 38.401-19.199z"/></svg>