<svg id="Layer_1" enable-background="new 0 0 480 480" height="512" viewBox="0 0 480 480" width="512" xmlns="http://www.w3.org/2000/svg"><path d="m272.83 8h-65.66c-72.17 0-130.67 58.5-130.67 130.67v317.33c0 8.84 7.16 16 16 16h295c8.84 0 16-7.16 16-16v-317.33c0-72.098-58.416-130.67-130.67-130.67z" fill="#ffebd2"/><path d="m209.922 357.415c21.368 13.363 4.504 46.153-18.885 36.767-48.103-19.305-81.706-66.179-81.706-120.734v-53.213c0-4.832 4.308-8.536 9.088-7.774 3.591.575 7.173.961 10.735 1.164 10.987.625 19.575 9.706 19.575 20.71v12.848c0 47.931 25.198 87.722 61.193 110.232z" fill="#fff3e4"/><path d="m403.5 138.67v317.33c0 8.837-7.163 16-16 16h-43.51c-30.11 0-54.55-24.46-54.55-54.74v-23.812l-.6.252c47.26-19.47 80.52-65.98 80.52-120.26v-66.483c0-3.419-2.152-6.486-5.385-7.599-23.617-8.128-43.857-24.511-56.63-46.965-2.966-5.215-10.364-5.503-13.657-.488-13.556 20.65-31.724 36.789-52.645 47.994-5.372 2.877-11.76-1.142-11.736-7.236.017-4.359-.486-8.742-1.524-13.049-1.517-6.292-9.503-8.311-13.771-3.445-24.654 28.112-59.504 41.958-95.969 38.234-4.675-.477-8.712 3.269-8.712 7.968 0 52.494-1.56 65.825 5.78 89.527 10.147 34.475 37.456 66.441 74.74 81.8l-.6-.249v23.809c0 30.28-24.44 54.74-54.55 54.74h-42.201c-8.837 0-16-7.163-16-16v-317.328c0-72.167 58.503-130.67 130.67-130.67.001 0 69.029.04 69.03.04 73.136 2.112 127.3 61.68 127.3 130.63z" fill="#42434d"/><path d="m289.44 393.448v20.772c-32.101 13.781-70.357 12.786-100.19 0v-20.769l.678.249c31.808 13.186 67.329 13.251 99.512-.252z" fill="#ffdfba"/><path d="m315.47 47.44c-2.6-.07-67.55-.04-68.9-.04-72.17 0-130.67 58.5-130.67 130.67v34.4c-3.616.603-6.57 3.757-6.57 7.76 0 55.604-1.523 68.329 5.93 92.16.952 3.016.64-10.676.64 159.61h-23.4c-8.837 0-16-7.163-16-16v-317.33c0-72.167 58.503-130.67 130.67-130.67 70.595 0 66.828-.018 68.92.04 14.644 0 35.157 4.666 46.56 9.8 15.26 6.86 9.88 30.01-7.18 29.6z" fill="#4d4e59"/><path d="m210.5 236v16c0 4.418-3.582 8-8 8s-8-3.582-8-8v-16c0-4.418 3.582-8 8-8s8 3.582 8 8zm80 16v-16c0-4.418-3.582-8-8-8s-8 3.582-8 8v16c0 4.418 3.582 8 8 8s8-3.582 8-8zm40.06 11.39c4.205-1.752 5.976-6.505 4.33-10.45-1.975-4.735-7.727-6.353-11.83-3.59-3.143 2.075-4.421 6.167-2.95 9.71 1.754 4.207 6.504 5.974 10.45 4.33zm-187.121-22.78c-4.191 1.75-5.979 6.479-4.33 10.45 1.755 4.207 6.504 5.973 10.45 4.33 3.683-1.535 5.537-5.453 4.78-8.95-.977-5.007-6.329-7.735-10.9-5.83zm55.621 118.74c-5.182 3.42-4.66 11.518 1.38 14.04 6.496 2.7 13.208-3.837 10.45-10.45-1.953-4.681-7.679-6.385-11.83-3.59zm-45.22-41.69c4.512 4.512 12.279 2.147 13.5-4.1 1.638-7.575-7.879-12.841-13.5-7.22-3.123 3.122-3.105 8.219 0 11.32zm153.82 5.78c-.885 4.09 1.793 8.519 6.279 9.4 4.081.878 8.522-1.782 9.4-6.28.747-3.452-1.054-7.398-4.78-8.95-4.604-1.923-9.929.86-10.899 5.83zm-103.56 1.761c-2.65 3.535-1.934 8.549 1.602 11.2s8.55 1.932 11.199-1.602c.982-1.31 10.046-12.799 25.6-12.799 1.638 0 16.27.359 25.6 12.8 2.652 3.536 7.668 4.25 11.2 1.6 3.535-2.651 4.251-7.665 1.601-11.2-13.706-18.274-34.393-19.2-38.4-19.2-22.849 0-35.999 15.995-38.402 19.201zm68.731-325.201h-65.662c-76.462 0-138.669 62.207-138.669 138.668v333.332c0 4.418 3.582 8 8 8s8-3.582 8-8v-333.332c0-67.639 55.029-122.668 122.669-122.668h65.662c67.64 0 122.669 55.029 122.669 122.668v333.332c0 4.418 3.582 8 8 8s8-3.582 8-8v-333.332c0-76.461-62.207-138.668-138.669-138.668zm99.544 193.642c-2.476-1.008-20.542-5.007-38.415-20.899-14.079-12.517-21.615-26.687-25.458-36.37-2.518-6.345-11.367-6.816-14.53-.745-12.397 23.796-31.664 43.841-56.662 57.209.062-10.683-2.587-21.427-8.064-31.169-2.894-5.148-10.22-5.501-13.576-.597-17.853 26.093-43.85 43.398-75.326 44.106-4.418.1-7.918 3.761-7.818 8.178.099 4.356 3.66 7.82 7.994 7.82 26.884 0 56.336-12.571 79.518-39.569 1.713 7.207 1.763 14.961-.252 22.67-1.666 6.379 4.702 11.942 10.802 9.414 29.766-12.331 53.411-32.441 69.783-57.388 14.024 24.648 36.042 42.011 60.986 50.61v66.527c0 67.278-54.734 122.012-122.012 122.012s-122.013-54.734-122.013-122.012v-30.369c0-4.418-3.582-8-8-8s-8 3.582-8 8v30.369c0 55.358 32.766 103.199 79.919 125.171v18.646c0 25.834-20.789 46.742-46.551 46.741-4.418 0-8 3.582-8 8s3.581 8 8 8c34.577 0 62.551-28.04 62.551-62.741v-12.378c88.773 28.496 179.404-37.853 180.102-130.386.007-.195.003-73.253 0-73.517-.027-3.187-1.961-6.103-4.978-7.333zm-28.496 270.358c-16.398 0-31.279-8.404-39.807-22.481-2.289-3.778-7.209-4.986-10.987-2.698-3.779 2.29-4.987 7.208-2.698 10.988 11.452 18.905 31.449 30.191 53.492 30.191 4.419 0 8-3.582 8-8s-3.582-8-8-8z"/></svg>